STARTFONT 2.1
COMMENT
COMMENT Converted from OpenType font "ChivoMono-Bold.ttf" by "otf2bdf 3.0".
COMMENT
FONT -FreeType-chivo mono-Bold-R-Normal--22-160-100-100-P-112-ISO10646-1
SIZE 16 100 100
FONTBOUNDINGBOX 17 33 -1 -8
STARTPROPERTIES 19
FOUNDRY "FreeType"
FAMILY_NAME "chivo mono"
WEIGHT_NAME "Bold"
SLANT "R"
SETWIDTH_NAME "Normal"
ADD_STYLE_NAME ""
PIXEL_SIZE 22
POINT_SIZE 160
RESOLUTION_X 100
RESOLUTION_Y 100
SPACING "P"
AVERAGE_WIDTH 112
CHARSET_REGISTRY "ISO10646"
CHARSET_ENCODING "1"
FONT_ASCENT 20
FONT_DESCENT 5
COPYRIGHT "Copyright 2018 The Chivo Project Authors (https://github.com/Omnibus-Type/Chivo)"
_OTF_FONTFILE "ChivoMono-Bold.ttf"
_OTF_PSNAME "ChivoMono-Bold"
ENDPROPERTIES
CHARS 642
STARTCHAR 000D
ENCODING 13
SWIDTH 585 0
DWIDTH 13 0
BBX 0 0 0 0
BITMAP
ENDCHAR
STARTCHAR 0020
ENCODING 32
SWIDTH 585 0
DWIDTH 13 0
BBX 0 0 0 0
BITMAP
ENDCHAR
STARTCHAR 0021
ENCODING 33
SWIDTH 585 0
DWIDTH 13 0
BBX 4 15 5 0
BITMAP
F0
F0
F0
E0
E0
E0
E0
E0
E0
E0
00
00
F0
F0
F0
ENDCHAR
STARTCHAR 0022
ENCODING 34
SWIDTH 585 0
DWIDTH 13 0
BBX 7 6 3 9
BITMAP
EE
EE
EE
E6
66
46
ENDCHAR
STARTCHAR 0023
ENCODING 35
SWIDTH 585 0
DWIDTH 13 0
BBX 13 15 0 0
BITMAP
0630
0E30
0E70
0C60
7FF8
7FF8
1CE0
18C0
18C0
FFF8
FFF8
31C0
3180
3180
3180
ENDCHAR
STARTCHAR 0024
ENCODING 36
SWIDTH 585 0
DWIDTH 13 0
BBX 12 18 1 -1
BITMAP
0E00
0600
1F80
7FC0
7FE0
F0E0
F000
FC00
7F80
3FE0
07E0
00F0
E0E0
F1E0
FFE0
3FC0
0E00
0E00
ENDCHAR
STARTCHAR 0025
ENCODING 37
SWIDTH 585 0
DWIDTH 13 0
BBX 13 15 0 0
BITMAP
7818
CC30
CC60
CC40
CCC0
CD80
7800
2070
00F8
0C98
1898
1898
3098
60D8
C070
ENDCHAR
STARTCHAR 0026
ENCODING 38
SWIDTH 585 0
DWIDTH 13 0
BBX 12 15 1 0
BITMAP
3C00
7C00
F000
E0E0
E0E0
F0E0
7FF0
7FF0
F9E0
E1E0
E1E0
E1E0
FFE0
7FE0
3FE0
ENDCHAR
STARTCHAR 0027
ENCODING 39
SWIDTH 585 0
DWIDTH 13 0
BBX 3 6 5 9
BITMAP
E0
E0
E0
E0
60
40
ENDCHAR
STARTCHAR 0028
ENCODING 40
SWIDTH 585 0
DWIDTH 13 0
BBX 6 18 4 -3
BITMAP
1C
18
38
30
70
70
60
E0
E0
E0
E0
60
70
70
70
30
38
1C
ENDCHAR
STARTCHAR 0029
ENCODING 41
SWIDTH 585 0
DWIDTH 13 0
BBX 6 18 3 -3
BITMAP
E0
70
30
38
38
18
1C
1C
1C
1C
1C
1C
1C
18
38
30
30
E0
ENDCHAR
STARTCHAR 002A
ENCODING 42
SWIDTH 585 0
DWIDTH 13 0
BBX 10 9 2 6
BITMAP
0C00
0C00
CD80
FF80
3F40
1E00
3700
7300
2200
ENDCHAR
STARTCHAR 002B
ENCODING 43
SWIDTH 585 0
DWIDTH 13 0
BBX 11 11 1 0
BITMAP
0E00
0E00
0E00
0E00
FFE0
FFE0
FFE0
0E00
0E00
0E00
0E00
ENDCHAR
STARTCHAR 002C
ENCODING 44
SWIDTH 585 0
DWIDTH 13 0
BBX 3 8 5 -4
BITMAP
E0
E0
E0
E0
60
60
60
C0
ENDCHAR
STARTCHAR 002D
ENCODING 45
SWIDTH 585 0
DWIDTH 13 0
BBX 5 3 4 5
BITMAP
F8
F8
F8
ENDCHAR
STARTCHAR 002E
ENCODING 46
SWIDTH 585 0
DWIDTH 13 0
BBX 4 3 5 0
BITMAP
F0
F0
F0
ENDCHAR
STARTCHAR 002F
ENCODING 47
SWIDTH 585 0
DWIDTH 13 0
BBX 13 19 0 -4
BITMAP
0038
0030
0070
0060
00E0
00C0
0180
0380
0300
0700
0600
0E00
0C00
1C00
1800
3000
7000
6000
E000
ENDCHAR
STARTCHAR 0030
ENCODING 48
SWIDTH 585 0
DWIDTH 13 0
BBX 11 15 1 0
BITMAP
3F80
7FC0
F1E0
F0E0
E0E0
E0E0
E0E0
E0E0
E0E0
E0E0
E0E0
F0E0
7BE0
7FC0
1F80
ENDCHAR
STARTCHAR 0031
ENCODING 49
SWIDTH 585 0
DWIDTH 13 0
BBX 10 15 2 0
BITMAP
0E00
FE00
FE00
FE00
1E00
1E00
1E00
1E00
1E00
1E00
1E00
1E00
FFC0
FFC0
FFC0
ENDCHAR
STARTCHAR 0032
ENCODING 50
SWIDTH 585 0
DWIDTH 13 0
BBX 11 15 1 0
BITMAP
3F80
7FC0
79E0
E0E0
E0E0
00E0
01E0
03C0
0F80
1F00
3C00
7800
FFE0
FFE0
FFE0
ENDCHAR
STARTCHAR 0033
ENCODING 51
SWIDTH 585 0
DWIDTH 13 0
BBX 12 15 1 0
BITMAP
3F80
7FC0
F1E0
E0E0
00E0
01E0
0FC0
0FC0
01E0
00E0
E0F0
E0E0
FBE0
7FE0
3F80
ENDCHAR
STARTCHAR 0034
ENCODING 52
SWIDTH 585 0
DWIDTH 13 0
BBX 12 15 1 0
BITMAP
1E00
1CC0
1CC0
39C0
39C0
73C0
73C0
E3C0
C3C0
FFF0
FFF0
03C0
03C0
03C0
03C0
ENDCHAR
STARTCHAR 0035
ENCODING 53
SWIDTH 585 0
DWIDTH 13 0
BBX 11 15 1 0
BITMAP
7FC0
7FC0
7FC0
7000
7000
7F80
7FC0
7FE0
A0E0
00E0
E0E0
E1E0
FFE0
7FC0
3F80
ENDCHAR
STARTCHAR 0036
ENCODING 54
SWIDTH 585 0
DWIDTH 13 0
BBX 12 15 1 0
BITMAP
3F80
7FC0
79E0
F0E0
F0E0
F300
FFC0
FFE0
F0E0
F0F0
F0F0
F0E0
79E0
3FC0
1F80
ENDCHAR
STARTCHAR 0037
ENCODING 55
SWIDTH 585 0
DWIDTH 13 0
BBX 11 15 1 0
BITMAP
FFE0
FFE0
FFE0
01C0
0380
0380
0700
0F00
0E00
1E00
1E00
1C00
1C00
3C00
3C00
ENDCHAR
STARTCHAR 0038
ENCODING 56
SWIDTH 585 0
DWIDTH 13 0
BBX 11 15 1 0
BITMAP
3F80
7FC0
71E0
F0E0
70E0
71E0
3FC0
3F80
79E0
F0E0
E0E0
F0E0
F1E0
7FE0
3F80
ENDCHAR
STARTCHAR 0039
ENCODING 57
SWIDTH 585 0
DWIDTH 13 0
BBX 11 15 1 0
BITMAP
3F80
7FC0
F1E0
E0E0
E0E0
E0E0
F1E0
FFE0
7EE0
00E0
E0E0
F1E0
FBE0
7FC0
3F00
ENDCHAR
STARTCHAR 003A
ENCODING 58
SWIDTH 585 0
DWIDTH 13 0
BBX 4 11 5 0
BITMAP
F0
F0
F0
00
00
00
00
00
F0
F0
F0
ENDCHAR
STARTCHAR 003B
ENCODING 59
SWIDTH 585 0
DWIDTH 13 0
BBX 4 15 5 -4
BITMAP
F0
F0
F0
00
00
00
00
E0
E0
E0
E0
60
60
60
C0
ENDCHAR
STARTCHAR 003C
ENCODING 60
SWIDTH 585 0
DWIDTH 13 0
BBX 11 11 1 0
BITMAP
0060
03E0
0FC0
7F00
F800
E000
FC00
3F00
0FE0
01E0
0020
ENDCHAR
STARTCHAR 003D
ENCODING 61
SWIDTH 585 0
DWIDTH 13 0
BBX 11 7 1 2
BITMAP
FFE0
FFE0
0000
0000
0000
FFE0
FFE0
ENDCHAR
STARTCHAR 003E
ENCODING 62
SWIDTH 585 0
DWIDTH 13 0
BBX 12 11 1 0
BITMAP
E000
F800
7F00
0FC0
03F0
00F0
03F0
1FC0
FE00
F000
C000
ENDCHAR
STARTCHAR 003F
ENCODING 63
SWIDTH 585 0
DWIDTH 13 0
BBX 11 15 1 0
BITMAP
3F80
7FC0
71E0
F1E0
F1E0
01E0
03C0
0780
0F00
0E00
0000
0000
0F00
0F00
0F00
ENDCHAR
STARTCHAR 0040
ENCODING 64
SWIDTH 585 0
DWIDTH 13 0
BBX 13 19 0 -4
BITMAP
1FC0
3030
6010
6318
4FD8
DFC8
DCC8
C0E8
87E8
9FE8
9CE8
DCE8
DDE8
DFF8
4F70
6000
3000
1FC0
0780
ENDCHAR
STARTCHAR 0041
ENCODING 65
SWIDTH 585 0
DWIDTH 13 0
BBX 13 15 0 0
BITMAP
0F80
0F80
0FC0
1DC0
1DC0
1DE0
3DE0
38E0
38E0
3FF0
7FF0
7FF0
7078
7078
F078
ENDCHAR
STARTCHAR 0042
ENCODING 66
SWIDTH 585 0
DWIDTH 13 0
BBX 12 15 1 0
BITMAP
FFC0
FFE0
F1E0
F0E0
F0E0
F1E0
FFC0
FFC0
FFE0
F0F0
F0F0
F0F0
FFE0
FFE0
FFC0
ENDCHAR
STARTCHAR 0043
ENCODING 67
SWIDTH 585 0
DWIDTH 13 0
BBX 13 15 0 0
BITMAP
1FC0
3FE0
7CF0
7870
F070
F078
F000
F000
F000
F078
7070
7870
7FF0
3FE0
1FC0
ENDCHAR
STARTCHAR 0044
ENCODING 68
SWIDTH 585 0
DWIDTH 13 0
BBX 12 15 1 0
BITMAP
FF80
FFE0
FFE0
F0F0
F0F0
F0F0
F0F0
F0F0
F0F0
F0F0
F0F0
F0F0
FFE0
FFC0
FF80
ENDCHAR
STARTCHAR 0045
ENCODING 69
SWIDTH 585 0
DWIDTH 13 0
BBX 10 15 2 0
BITMAP
FFC0
FFC0
FFC0
E000
E000
E000
FF80
FF80
FF80
E000
E000
E000
FFC0
FFC0
FFC0
ENDCHAR
STARTCHAR 0046
ENCODING 70
SWIDTH 585 0
DWIDTH 13 0
BBX 10 15 2 0
BITMAP
FFC0
FFC0
FFC0
E000
E000
E000
FF80
FF80
FF80
E000
E000
E000
E000
E000
E000
ENDCHAR
STARTCHAR 0047
ENCODING 71
SWIDTH 585 0
DWIDTH 13 0
BBX 13 15 0 0
BITMAP
1FC0
3FE0
7CF0
7870
F078
F000
F000
F3F8
F3F8
F078
7078
7878
7FF8
3FF8
1F98
ENDCHAR
STARTCHAR 0048
ENCODING 72
SWIDTH 585 0
DWIDTH 13 0
BBX 11 15 1 0
BITMAP
F0E0
F0E0
F0E0
F0E0
F0E0
F0E0
FFE0
FFE0
FFE0
F0E0
F0E0
F0E0
F0E0
F0E0
F0E0
ENDCHAR
STARTCHAR 0049
ENCODING 73
SWIDTH 585 0
DWIDTH 13 0
BBX 10 15 2 0
BITMAP
FFC0
FFC0
1E00
1E00
1E00
1E00
1E00
1E00
1E00
1E00
1E00
1E00
FFC0
FFC0
FFC0
ENDCHAR
STARTCHAR 004A
ENCODING 74
SWIDTH 585 0
DWIDTH 13 0
BBX 10 15 2 0
BITMAP
03C0
03C0
03C0
03C0
03C0
03C0
03C0
03C0
03C0
03C0
E3C0
E3C0
F780
FF80
7F00
ENDCHAR
STARTCHAR 004B
ENCODING 75
SWIDTH 585 0
DWIDTH 13 0
BBX 12 15 1 0
BITMAP
F0F0
F1E0
F1C0
F3C0
F780
F780
FF00
FF00
FF80
FF80
F3C0
F3C0
F1E0
F1E0
F0F0
ENDCHAR
STARTCHAR 004C
ENCODING 76
SWIDTH 585 0
DWIDTH 13 0
BBX 10 15 2 0
BITMAP
F000
F000
F000
F000
F000
F000
F000
F000
F000
F000
F000
F000
FFC0
FFC0
FFC0
ENDCHAR
STARTCHAR 004D
ENCODING 77
SWIDTH 585 0
DWIDTH 13 0
BBX 12 15 1 0
BITMAP
F1F0
F9F0
F9F0
F9F0
FBF0
FBF0
FBF0
FBF0
FBF0
EEF0
EEF0
EEF0
EEF0
EEF0
EEF0
ENDCHAR
STARTCHAR 004E
ENCODING 78
SWIDTH 585 0
DWIDTH 13 0
BBX 11 15 1 0
BITMAP
F0E0
F0E0
F8E0
F8E0
FCE0
FCE0
FEE0
FEE0
F7E0
F7E0
F3E0
F3E0
F3E0
F1E0
F1E0
ENDCHAR
STARTCHAR 004F
ENCODING 79
SWIDTH 585 0
DWIDTH 13 0
BBX 13 15 0 0
BITMAP
1FC0
3FF0
7CF0
7878
F078
F078
F078
F078
F078
F078
7078
7878
7FF0
3FE0
1FC0
ENDCHAR
STARTCHAR 0050
ENCODING 80
SWIDTH 585 0
DWIDTH 13 0
BBX 12 15 1 0
BITMAP
FFC0
FFE0
FFF0
F0F0
F0F0
F0F0
FFF0
FFE0
FFC0
F000
F000
F000
F000
F000
F000
ENDCHAR
STARTCHAR 0051
ENCODING 81
SWIDTH 585 0
DWIDTH 13 0
BBX 13 18 0 -3
BITMAP
1FC0
3FF0
7CF0
7878
F078
F078
F078
F078
F078
F078
7078
7878
7FF0
3FE0
1FC0
0780
03F8
01F8
ENDCHAR
STARTCHAR 0052
ENCODING 82
SWIDTH 585 0
DWIDTH 13 0
BBX 13 15 1 0
BITMAP
FFC0
FFE0
FFF0
F0F0
F0F0
F0F0
FFE0
FFC0
FFE0
F1E0
F0F0
F0F0
F0F0
F0F0
F078
ENDCHAR
STARTCHAR 0053
ENCODING 83
SWIDTH 585 0
DWIDTH 13 0
BBX 13 15 0 0
BITMAP
1FE0
3FF0
78F0
7878
7800
7E00
7FE0
3FF0
07F8
00F8
F078
7078
7FF0
3FF0
1FC0
ENDCHAR
STARTCHAR 0054
ENCODING 84
SWIDTH 585 0
DWIDTH 13 0
BBX 12 15 1 0
BITMAP
FFF0
FFF0
FFF0
0F00
0F00
0F00
0F00
0F00
0F00
0F00
0F00
0F00
0F00
0F00
0F00
ENDCHAR
STARTCHAR 0055
ENCODING 85
SWIDTH 585 0
DWIDTH 13 0
BBX 11 15 1 0
BITMAP
F0E0
F0E0
F0E0
F0E0
F0E0
F0E0
F0E0
F0E0
F0E0
F0E0
F0E0
F0E0
FFE0
7FC0
3F80
ENDCHAR
STARTCHAR 0056
ENCODING 86
SWIDTH 585 0
DWIDTH 13 0
BBX 13 15 0 0
BITMAP
F038
7078
7070
7870
7870
38F0
38E0
3CE0
1CE0
1DE0
1DC0
1FC0
0FC0
0F80
0F80
ENDCHAR
STARTCHAR 0057
ENCODING 87
SWIDTH 585 0
DWIDTH 13 0
BBX 13 15 0 0
BITMAP
E318
E738
E738
F7B8
77B8
77B8
77B8
75B0
7DB0
7DF0
7DF0
7DF0
7CF0
3CF0
3CF0
ENDCHAR
STARTCHAR 0058
ENCODING 88
SWIDTH 585 0
DWIDTH 13 0
BBX 13 15 0 0
BITMAP
7878
7CF0
3CE0
1FE0
1FC0
0FC0
0F80
0F80
1FC0
1FC0
3DE0
39E0
78F0
78F0
F078
ENDCHAR
STARTCHAR 0059
ENCODING 89
SWIDTH 585 0
DWIDTH 13 0
BBX 13 15 0 0
BITMAP
F078
7870
78F0
3CE0
3DE0
1FC0
1FC0
0FC0
0F80
0780
0780
0780
0780
0780
0780
ENDCHAR
STARTCHAR 005A
ENCODING 90
SWIDTH 585 0
DWIDTH 13 0
BBX 12 15 1 0
BITMAP
FFF0
FFE0
FFE0
03C0
0780
0780
0F00
1F00
1E00
3C00
3C00
7800
FFF0
FFF0
FFF0
ENDCHAR
STARTCHAR 005B
ENCODING 91
SWIDTH 585 0
DWIDTH 13 0
BBX 5 19 5 -4
BITMAP
F8
E0
E0
E0
E0
E0
E0
E0
E0
E0
E0
E0
E0
E0
E0
E0
E0
F8
F8
ENDCHAR
STARTCHAR 005C
ENCODING 92
SWIDTH 585 0
DWIDTH 13 0
BBX 13 19 0 -4
BITMAP
E000
7000
3000
3800
1800
1C00
0C00
0E00
0600
0300
0380
0180
01C0
00C0
00E0
0060
0070
0030
0018
ENDCHAR
STARTCHAR 005D
ENCODING 93
SWIDTH 585 0
DWIDTH 13 0
BBX 5 19 3 -4
BITMAP
F8
38
38
38
38
38
38
38
38
38
38
38
38
38
38
38
38
F8
F8
ENDCHAR
STARTCHAR 005E
ENCODING 94
SWIDTH 585 0
DWIDTH 13 0
BBX 11 11 1 0
BITMAP
0E00
0F00
1F00
1B80
3B80
3980
31C0
70C0
60C0
E0E0
E060
ENDCHAR
STARTCHAR 005F
ENCODING 95
SWIDTH 585 0
DWIDTH 13 0
BBX 11 2 1 -3
BITMAP
FFE0
FFE0
ENDCHAR
STARTCHAR 0060
ENCODING 96
SWIDTH 585 0
DWIDTH 13 0
BBX 5 4 4 13
BITMAP
E0
70
30
38
ENDCHAR
STARTCHAR 0061
ENCODING 97
SWIDTH 585 0
DWIDTH 13 0
BBX 12 12 1 0
BITMAP
0E00
3F80
7FC0
F1E0
01E0
1FE0
7FE0
F1E0
F1E0
F3E0
FFF0
7EF0
ENDCHAR
STARTCHAR 0062
ENCODING 98
SWIDTH 585 0
DWIDTH 13 0
BBX 11 16 2 0
BITMAP
E000
E000
E000
E000
E600
FF80
FFC0
E1C0
E1C0
E1C0
E1E0
E1C0
E1C0
F3C0
FF80
FF00
ENDCHAR
STARTCHAR 0063
ENCODING 99
SWIDTH 585 0
DWIDTH 13 0
BBX 11 12 1 0
BITMAP
0E00
3F80
7FC0
F1E0
F0E0
F000
F000
F0E0
F0E0
71C0
7FC0
1F80
ENDCHAR
STARTCHAR 0064
ENCODING 100
SWIDTH 585 0
DWIDTH 13 0
BBX 11 16 1 0
BITMAP
01E0
01E0
01E0
01E0
09E0
3FE0
7FE0
F1E0
E1E0
E1E0
E1E0
E1E0
E1E0
F1E0
7FE0
3EE0
ENDCHAR
STARTCHAR 0065
ENCODING 101
SWIDTH 585 0
DWIDTH 13 0
BBX 11 12 1 0
BITMAP
0600
3F80
7FC0
F1E0
F0E0
FFE0
FFE0
F000
F0E0
71E0
7FC0
3F80
ENDCHAR
STARTCHAR 0066
ENCODING 102
SWIDTH 585 0
DWIDTH 13 0
BBX 10 16 2 0
BITMAP
0FC0
1FC0
1E40
1C00
1C00
FFC0
FFC0
1C00
1C00
1C00
1C00
1C00
1C00
FFC0
FFC0
FFC0
ENDCHAR
STARTCHAR 0067
ENCODING 103
SWIDTH 585 0
DWIDTH 13 0
BBX 12 17 1 -4
BITMAP
0070
0EE0
3FC0
79C0
70E0
70E0
79E0
3FC0
7F00
E000
FFC0
7FE0
7FF0
E070
E070
FFF0
7FE0
ENDCHAR
STARTCHAR 0068
ENCODING 104
SWIDTH 585 0
DWIDTH 13 0
BBX 10 16 2 0
BITMAP
E000
E000
E000
E000
E600
FF80
FFC0
E3C0
E3C0
E3C0
E3C0
E3C0
E3C0
E3C0
E3C0
E3C0
ENDCHAR
STARTCHAR 0069
ENCODING 105
SWIDTH 585 0
DWIDTH 13 0
BBX 11 16 2 0
BITMAP
0E00
0E00
0000
0000
0000
FE00
FE00
0E00
0E00
0E00
0E00
0E00
0E00
FFE0
FFE0
FFE0
ENDCHAR
STARTCHAR 006A
ENCODING 106
SWIDTH 585 0
DWIDTH 13 0
BBX 7 20 2 -4
BITMAP
0E
0E
00
00
00
FE
FE
0E
0E
0E
0E
0E
0E
0E
0E
0E
0E
9E
FC
F8
ENDCHAR
STARTCHAR 006B
ENCODING 107
SWIDTH 585 0
DWIDTH 13 0
BBX 12 16 1 0
BITMAP
F000
F000
F000
F000
F010
F1E0
F3C0
F380
F780
FF00
FF00
FF80
FF80
F3C0
F1E0
F1F0
ENDCHAR
STARTCHAR 006C
ENCODING 108
SWIDTH 585 0
DWIDTH 13 0
BBX 11 16 1 0
BITMAP
FF00
FF00
FF00
0F00
0F00
0F00
0F00
0F00
0F00
0F00
0F00
0F00
0F00
FFE0
FFE0
FFE0
ENDCHAR
STARTCHAR 006D
ENCODING 109
SWIDTH 585 0
DWIDTH 13 0
BBX 12 12 1 0
BITMAP
08C0
FDE0
FFE0
EE70
EE70
EE70
EE70
EE70
EE70
EE70
EE70
EE70
ENDCHAR
STARTCHAR 006E
ENCODING 110
SWIDTH 585 0
DWIDTH 13 0
BBX 10 12 2 0
BITMAP
0600
FF80
FFC0
E3C0
E3C0
E3C0
E3C0
E3C0
E3C0
E3C0
E3C0
E3C0
ENDCHAR
STARTCHAR 006F
ENCODING 111
SWIDTH 585 0
DWIDTH 13 0
BBX 11 12 1 0
BITMAP
0600
3F80
7FC0
F1E0
F0E0
F0E0
F0E0
F0E0
F0E0
71E0
7FC0
1F80
ENDCHAR
STARTCHAR 0070
ENCODING 112
SWIDTH 585 0
DWIDTH 13 0
BBX 11 16 2 -4
BITMAP
0600
FF80
FFC0
E1C0
E1C0
E1C0
E1E0
E1C0
E1C0
F3C0
FF80
FF00
E000
E000
E000
E000
ENDCHAR
STARTCHAR 0071
ENCODING 113
SWIDTH 585 0
DWIDTH 13 0
BBX 11 16 1 -4
BITMAP
0800
3EE0
7FE0
F1E0
E1E0
E1E0
E1E0
E1E0
E1E0
F1E0
7FE0
3FE0
01E0
01E0
01E0
01E0
ENDCHAR
STARTCHAR 0072
ENCODING 114
SWIDTH 585 0
DWIDTH 13 0
BBX 12 12 1 0
BITMAP
0080
FBE0
FFF0
3CF0
3C70
3C00
3C00
3C00
3C00
FFC0
FFC0
FFC0
ENDCHAR
STARTCHAR 0073
ENCODING 115
SWIDTH 585 0
DWIDTH 13 0
BBX 11 12 1 0
BITMAP
0E00
3FC0
7FC0
70E0
F800
7F80
3FE0
07E0
E0E0
F0E0
7FC0
3F80
ENDCHAR
STARTCHAR 0074
ENCODING 116
SWIDTH 585 0
DWIDTH 13 0
BBX 11 15 1 0
BITMAP
0C00
0C00
1C00
1C00
FFE0
FFE0
1C00
1C00
1C00
1C00
1C00
1E00
1F20
1FE0
07E0
ENDCHAR
STARTCHAR 0075
ENCODING 117
SWIDTH 585 0
DWIDTH 13 0
BBX 12 11 1 0
BITMAP
F1E0
F1E0
F1E0
F1E0
F1E0
F1E0
F1E0
F1E0
FBE0
7FF0
3EF0
ENDCHAR
STARTCHAR 0076
ENCODING 118
SWIDTH 585 0
DWIDTH 13 0
BBX 12 11 1 0
BITMAP
F0F0
F0E0
71E0
79C0
79C0
3BC0
3F80
3F80
1F80
1F00
1F00
ENDCHAR
STARTCHAR 0077
ENCODING 119
SWIDTH 585 0
DWIDTH 13 0
BBX 13 11 0 0
BITMAP
E738
E738
67B8
67B8
7FB0
7DB0
7DF0
7DF0
3DF0
3CF0
3CE0
ENDCHAR
STARTCHAR 0078
ENCODING 120
SWIDTH 585 0
DWIDTH 13 0
BBX 12 11 1 0
BITMAP
F1F0
79C0
3FC0
3F80
1F00
1F00
3F80
3BC0
7BC0
71E0
F1F0
ENDCHAR
STARTCHAR 0079
ENCODING 121
SWIDTH 585 0
DWIDTH 13 0
BBX 12 15 1 -4
BITMAP
F0F0
F0E0
71E0
79C0
39C0
3B80
3F80
1F80
1F00
0F00
0F00
0E00
9E00
7C00
7800
ENDCHAR
STARTCHAR 007A
ENCODING 122
SWIDTH 585 0
DWIDTH 13 0
BBX 9 11 2 0
BITMAP
FF80
FF80
0F00
0F00
1E00
1C00
3C00
7800
7800
FF80
FF80
ENDCHAR
STARTCHAR 007B
ENCODING 123
SWIDTH 585 0
DWIDTH 13 0
BBX 6 19 4 -4
BITMAP
3C
70
70
70
70
70
70
70
E0
E0
70
70
70
70
70
70
70
3C
0C
ENDCHAR
STARTCHAR 007C
ENCODING 124
SWIDTH 585 0
DWIDTH 13 0
BBX 2 20 6 -4
BITMAP
C0
C0
C0
C0
C0
C0
C0
C0
C0
C0
C0
C0
C0
C0
C0
C0
C0
C0
C0
C0
ENDCHAR
STARTCHAR 007D
ENCODING 125
SWIDTH 585 0
DWIDTH 13 0
BBX 6 19 4 -4
BITMAP
E0
70
70
70
70
70
30
30
3C
3C
30
30
70
70
70
70
70
F0
C0
ENDCHAR
STARTCHAR 007E
ENCODING 126
SWIDTH 585 0
DWIDTH 13 0
BBX 13 5 0 4
BITMAP
1808
7E18
FFF8
C1F0
8000
ENDCHAR
STARTCHAR 00A0
ENCODING 160
SWIDTH 585 0
DWIDTH 13 0
BBX 0 0 0 0
BITMAP
ENDCHAR
STARTCHAR 00A1
ENCODING 161
SWIDTH 585 0
DWIDTH 13 0
BBX 4 15 5 -4
BITMAP
F0
F0
F0
00
60
E0
E0
E0
E0
E0
E0
E0
F0
F0
F0
ENDCHAR
STARTCHAR 00A2
ENCODING 162
SWIDTH 585 0
DWIDTH 13 0
BBX 11 15 1 0
BITMAP
0600
0600
3F80
7FC0
70E0
F0E0
F000
F000
F000
F0E0
78E0
3FC0
1F80
0600
0600
ENDCHAR
STARTCHAR 00A3
ENCODING 163
SWIDTH 585 0
DWIDTH 13 0
BBX 13 16 0 0
BITMAP
0100
0FE0
1FF0
3C78
3C78
3C00
3C00
FF80
FF80
FF80
3C00
3C00
3800
7FF0
7FF0
7FF0
ENDCHAR
STARTCHAR 00A4
ENCODING 164
SWIDTH 585 0
DWIDTH 13 0
BBX 11 11 1 2
BITMAP
DF60
FFE0
71C0
E0E0
E060
C060
E060
60E0
71C0
FFE0
DF60
ENDCHAR
STARTCHAR 00A5
ENCODING 165
SWIDTH 585 0
DWIDTH 13 0
BBX 13 15 0 0
BITMAP
F078
7870
78F0
3CE0
3DE0
7FF8
7FF8
0F80
7FF8
7FF8
0780
0780
0780
0780
0780
ENDCHAR
STARTCHAR 00A6
ENCODING 166
SWIDTH 585 0
DWIDTH 13 0
BBX 2 20 6 -4
BITMAP
C0
C0
C0
C0
C0
C0
C0
C0
00
00
00
00
C0
C0
C0
C0
C0
C0
C0
C0
ENDCHAR
STARTCHAR 00A7
ENCODING 167
SWIDTH 585 0
DWIDTH 13 0
BBX 11 19 1 -4
BITMAP
3F80
7FC0
70E0
7000
7800
3E00
3F80
77C0
E1E0
E0E0
78E0
7EC0
1F80
07C0
01E0
00E0
71E0
7FC0
1F80
ENDCHAR
STARTCHAR 00A8
ENCODING 168
SWIDTH 585 0
DWIDTH 13 0
BBX 8 3 3 13
BITMAP
C7
C7
C7
ENDCHAR
STARTCHAR 00A9
ENCODING 169
SWIDTH 585 0
DWIDTH 13 0
BBX 13 15 0 0
BITMAP
1FC0
3060
6030
4F98
DDD8
D8C8
D808
D808
D8C8
DCC8
4FD8
4790
6030
3060
0FC0
ENDCHAR
STARTCHAR 00AA
ENCODING 170
SWIDTH 585 0
DWIDTH 13 0
BBX 8 7 3 8
BITMAP
7C
CE
3E
F6
CE
FF
66
ENDCHAR
STARTCHAR 00AB
ENCODING 171
SWIDTH 585 0
DWIDTH 13 0
BBX 11 7 1 4
BITMAP
1CE0
39C0
7380
F780
7380
39C0
1CE0
ENDCHAR
STARTCHAR 00AC
ENCODING 172
SWIDTH 585 0
DWIDTH 13 0
BBX 11 6 1 4
BITMAP
FFE0
FFE0
0060
0060
0060
0060
ENDCHAR
STARTCHAR 00AD
ENCODING 173
SWIDTH 585 0
DWIDTH 13 0
BBX 5 3 4 5
BITMAP
F8
F8
F8
ENDCHAR
STARTCHAR 00AE
ENCODING 174
SWIDTH 585 0
DWIDTH 13 0
BBX 13 15 0 0
BITMAP
1FC0
3060
6030
5FD8
DDD8
DCE8
DCC8
DF88
DCC8
DCC8
5CD8
5CF0
6030
3060
0FC0
ENDCHAR
STARTCHAR 00AF
ENCODING 175
SWIDTH 585 0
DWIDTH 13 0
BBX 7 1 3 14
BITMAP
FE
ENDCHAR
STARTCHAR 00B0
ENCODING 176
SWIDTH 585 0
DWIDTH 13 0
BBX 7 6 3 9
BITMAP
7C
E6
C6
C6
6E
7C
ENDCHAR
STARTCHAR 00B1
ENCODING 177
SWIDTH 585 0
DWIDTH 13 0
BBX 11 11 1 0
BITMAP
0E00
0E00
FFE0
FFE0
FFE0
0E00
0E00
0E00
0000
FFE0
FFE0
ENDCHAR
STARTCHAR 00B2
ENCODING 178
SWIDTH 585 0
DWIDTH 13 0
BBX 6 9 4 9
BITMAP
70
F8
8C
0C
18
70
E0
FC
FC
ENDCHAR
STARTCHAR 00B3
ENCODING 179
SWIDTH 585 0
DWIDTH 13 0
BBX 7 9 3 9
BITMAP
38
7C
46
0C
1C
06
C6
7E
38
ENDCHAR
STARTCHAR 00B4
ENCODING 180
SWIDTH 585 0
DWIDTH 13 0
BBX 5 4 4 13
BITMAP
38
70
70
E0
ENDCHAR
STARTCHAR 00B5
ENCODING 181
SWIDTH 585 0
DWIDTH 13 0
BBX 12 15 1 -4
BITMAP
F1E0
F1E0
F1E0
F1E0
F1E0
F1E0
F1E0
F1E0
FBE0
FFF0
FEF0
F000
F000
F000
F000
ENDCHAR
STARTCHAR 00B6
ENCODING 182
SWIDTH 585 0
DWIDTH 13 0
BBX 11 19 1 -4
BITMAP
3FE0
7C80
FC80
FC80
FC80
FC80
FC80
7C80
3C80
0C80
0C80
0C80
0C80
0C80
0C80
0C80
0C80
0C80
0C80
ENDCHAR
STARTCHAR 00B7
ENCODING 183
SWIDTH 585 0
DWIDTH 13 0
BBX 4 3 5 7
BITMAP
F0
F0
F0
ENDCHAR
STARTCHAR 00B8
ENCODING 184
SWIDTH 585 0
DWIDTH 13 0
BBX 5 4 4 -5
BITMAP
38
08
F8
70
ENDCHAR
STARTCHAR 00B9
ENCODING 185
SWIDTH 585 0
DWIDTH 13 0
BBX 5 9 4 9
BITMAP
30
F0
F0
30
30
30
30
F8
F8
ENDCHAR
STARTCHAR 00BA
ENCODING 186
SWIDTH 585 0
DWIDTH 13 0
BBX 7 8 3 8
BITMAP
10
7C
E6
C6
C6
E6
7C
18
ENDCHAR
STARTCHAR 00BB
ENCODING 187
SWIDTH 585 0
DWIDTH 13 0
BBX 10 7 2 4
BITMAP
E700
6300
7380
39C0
7380
7300
E700
ENDCHAR
STARTCHAR 00BC
ENCODING 188
SWIDTH 585 0
DWIDTH 13 0
BBX 13 16 0 0
BITMAP
1000
F018
F030
3060
3040
30C0
3180
FC60
FC50
00D0
0CB0
19B0
19F8
31F8
6030
C030
ENDCHAR
STARTCHAR 00BD
ENCODING 189
SWIDTH 585 0
DWIDTH 13 0
BBX 13 16 0 0
BITMAP
1000
F018
F030
3060
3040
30C0
3180
FC70
FCF8
0198
0C18
1838
1070
30C0
61F8
C1F8
ENDCHAR
STARTCHAR 00BE
ENCODING 190
SWIDTH 585 0
DWIDTH 13 0
BBX 13 16 0 0
BITMAP
3800
FC18
CC30
0C60
3840
0CC0
CD80
FC60
7850
00D0
0CB0
19B0
19F8
31F8
6030
C030
ENDCHAR
STARTCHAR 00BF
ENCODING 191
SWIDTH 585 0
DWIDTH 13 0
BBX 11 15 1 -4
BITMAP
0E00
0E00
0E00
0000
0E00
0E00
1E00
3C00
7800
F000
F0E0
F0E0
79E0
7FC0
1F00
ENDCHAR
STARTCHAR 00C0
ENCODING 192
SWIDTH 585 0
DWIDTH 13 0
BBX 13 20 0 0
BITMAP
1C00
0E00
0700
0000
0000
0F80
0F80
0FC0
1DC0
1DC0
1DE0
3DE0
38E0
38E0
3FF0
7FF0
7FF0
7078
7078
F078
ENDCHAR
STARTCHAR 00C1
ENCODING 193
SWIDTH 585 0
DWIDTH 13 0
BBX 13 20 0 0
BITMAP
01E0
0180
0380
0400
0000
0F80
0F80
0FC0
1DC0
1DC0
1DE0
3DE0
38E0
38E0
3FF0
7FF0
7FF0
7078
7078
F078
ENDCHAR
STARTCHAR 00C2
ENCODING 194
SWIDTH 585 0
DWIDTH 13 0
BBX 13 20 0 0
BITMAP
0700
0F80
1CC0
0020
0000
0F80
0F80
0FC0
1DC0
1DC0
1DE0
3DE0
38E0
38E0
3FF0
7FF0
7FF0
7078
7078
F078
ENDCHAR
STARTCHAR 00C3
ENCODING 195
SWIDTH 585 0
DWIDTH 13 0
BBX 13 20 0 0
BITMAP
0C60
1FE0
33C0
0000
0000
0F80
0F80
0FC0
1DC0
1DC0
1DE0
3DE0
38E0
38E0
3FF0
7FF0
7FF0
7078
7078
F078
ENDCHAR
STARTCHAR 00C4
ENCODING 196
SWIDTH 585 0
DWIDTH 13 0
BBX 13 20 0 0
BITMAP
18E0
18E0
18E0
0000
0000
0F80
0F80
0FC0
1DC0
1DC0
1DE0
3DE0
38E0
38E0
3FF0
7FF0
7FF0
7078
7078
F078
ENDCHAR
STARTCHAR 00C5
ENCODING 197
SWIDTH 585 0
DWIDTH 13 0
BBX 13 21 0 0
BITMAP
0700
0D80
0C80
0780
0000
0000
0F80
0F80
0FC0
1DC0
1DC0
1DE0
3DE0
38E0
38E0
3FF0
7FF0
7FF0
7078
7078
F078
ENDCHAR
STARTCHAR 00C6
ENCODING 198
SWIDTH 585 0
DWIDTH 13 0
BBX 13 15 0 0
BITMAP
0FF8
1FF8
1FF8
1F80
1F80
3B80
3BF0
3BF0
3BF0
7F80
7F80
7F80
73F8
F3F8
F3F8
ENDCHAR
STARTCHAR 00C7
ENCODING 199
SWIDTH 585 0
DWIDTH 13 0
BBX 13 20 0 -5
BITMAP
1FC0
3FE0
7CF0
7870
F070
F078
F000
F000
F000
F078
7070
7870
7FF0
3FE0
1FC0
0000
0380
0080
0F80
0700
ENDCHAR
STARTCHAR 00C8
ENCODING 200
SWIDTH 585 0
DWIDTH 13 0
BBX 10 20 2 0
BITMAP
7000
3800
1C00
0000
0000
FFC0
FFC0
FFC0
E000
E000
E000
FF80
FF80
FF80
E000
E000
E000
FFC0
FFC0
FFC0
ENDCHAR
STARTCHAR 00C9
ENCODING 201
SWIDTH 585 0
DWIDTH 13 0
BBX 10 20 2 0
BITMAP
0780
0700
0E00
1000
0000
FFC0
FFC0
FFC0
E000
E000
E000
FF80
FF80
FF80
E000
E000
E000
FFC0
FFC0
FFC0
ENDCHAR
STARTCHAR 00CA
ENCODING 202
SWIDTH 585 0
DWIDTH 13 0
BBX 10 20 2 0
BITMAP
1E00
3E00
7380
0000
0000
FFC0
FFC0
FFC0
E000
E000
E000
FF80
FF80
FF80
E000
E000
E000
FFC0
FFC0
FFC0
ENDCHAR
STARTCHAR 00CB
ENCODING 203
SWIDTH 585 0
DWIDTH 13 0
BBX 10 20 2 0
BITMAP
7380
7380
7380
0000
0000
FFC0
FFC0
FFC0
E000
E000
E000
FF80
FF80
FF80
E000
E000
E000
FFC0
FFC0
FFC0
ENDCHAR
STARTCHAR 00CC
ENCODING 204
SWIDTH 585 0
DWIDTH 13 0
BBX 10 20 2 0
BITMAP
7000
3800
1C00
0000
0000
FFC0
FFC0
1E00
1E00
1E00
1E00
1E00
1E00
1E00
1E00
1E00
1E00
FFC0
FFC0
FFC0
ENDCHAR
STARTCHAR 00CD
ENCODING 205
SWIDTH 585 0
DWIDTH 13 0
BBX 10 20 2 0
BITMAP
0780
0600
0E00
1000
0000
FFC0
FFC0
1E00
1E00
1E00
1E00
1E00
1E00
1E00
1E00
1E00
1E00
FFC0
FFC0
FFC0
ENDCHAR
STARTCHAR 00CE
ENCODING 206
SWIDTH 585 0
DWIDTH 13 0
BBX 10 20 2 0
BITMAP
1C00
3E00
7300
0080
0000
FFC0
FFC0
1E00
1E00
1E00
1E00
1E00
1E00
1E00
1E00
1E00
1E00
FFC0
FFC0
FFC0
ENDCHAR
STARTCHAR 00CF
ENCODING 207
SWIDTH 585 0
DWIDTH 13 0
BBX 10 20 2 0
BITMAP
6380
6380
6380
0000
0000
FFC0
FFC0
1E00
1E00
1E00
1E00
1E00
1E00
1E00
1E00
1E00
1E00
FFC0
FFC0
FFC0
ENDCHAR
STARTCHAR 00D0
ENCODING 208
SWIDTH 585 0
DWIDTH 13 0
BBX 13 15 0 0
BITMAP
7FC0
7FF0
7FF0
7878
7878
7878
FF78
FF78
FF78
7878
7878
7878
7FF0
7FE0
7FC0
ENDCHAR
STARTCHAR 00D1
ENCODING 209
SWIDTH 585 0
DWIDTH 13 0
BBX 11 20 1 0
BITMAP
18C0
3FC0
6780
0000
0000
F0E0
F0E0
F8E0
F8E0
FCE0
FCE0
FEE0
FEE0
F7E0
F7E0
F3E0
F3E0
F3E0
F1E0
F1E0
ENDCHAR
STARTCHAR 00D2
ENCODING 210
SWIDTH 585 0
DWIDTH 13 0
BBX 13 20 0 0
BITMAP
1C00
0E00
0700
0000
0000
1FC0
3FF0
7CF0
7878
F078
F078
F078
F078
F078
F078
7078
7878
7FF0
3FE0
1FC0
ENDCHAR
STARTCHAR 00D3
ENCODING 211
SWIDTH 585 0
DWIDTH 13 0
BBX 13 20 0 0
BITMAP
01E0
0180
0380
0400
0000
1FC0
3FF0
7CF0
7878
F078
F078
F078
F078
F078
F078
7078
7878
7FF0
3FE0
1FC0
ENDCHAR
STARTCHAR 00D4
ENCODING 212
SWIDTH 585 0
DWIDTH 13 0
BBX 13 20 0 0
BITMAP
0700
0F80
1CC0
0020
0000
1FC0
3FF0
7CF0
7878
F078
F078
F078
F078
F078
F078
7078
7878
7FF0
3FE0
1FC0
ENDCHAR
STARTCHAR 00D5
ENCODING 213
SWIDTH 585 0
DWIDTH 13 0
BBX 13 20 0 0
BITMAP
0C60
1FE0
33C0
0000
0000
1FC0
3FF0
7CF0
7878
F078
F078
F078
F078
F078
F078
7078
7878
7FF0
3FE0
1FC0
ENDCHAR
STARTCHAR 00D6
ENCODING 214
SWIDTH 585 0
DWIDTH 13 0
BBX 13 20 0 0
BITMAP
18E0
18E0
18E0
0000
0000
1FC0
3FF0
7CF0
7878
F078
F078
F078
F078
F078
F078
7078
7878
7FF0
3FE0
1FC0
ENDCHAR
STARTCHAR 00D7
ENCODING 215
SWIDTH 585 0
DWIDTH 13 0
BBX 10 10 2 1
BITMAP
4100
E180
F3C0
7F00
3E00
1E00
3F00
7780
E3C0
4180
ENDCHAR
STARTCHAR 00D8
ENCODING 216
SWIDTH 585 0
DWIDTH 13 0
BBX 13 18 0 -1
BITMAP
0018
0030
1FF0
3FF0
7CF0
78F8
F1F8
F1F8
F378
F378
F678
FC78
7C78
7878
7FF0
3FE0
7FC0
E000
ENDCHAR
STARTCHAR 00D9
ENCODING 217
SWIDTH 585 0
DWIDTH 13 0
BBX 11 20 1 0
BITMAP
3800
1C00
0E00
0000
0000
F0E0
F0E0
F0E0
F0E0
F0E0
F0E0
F0E0
F0E0
F0E0
F0E0
F0E0
F0E0
FFE0
7FC0
3F80
ENDCHAR
STARTCHAR 00DA
ENCODING 218
SWIDTH 585 0
DWIDTH 13 0
BBX 11 20 1 0
BITMAP
03C0
0300
0700
0800
0000
F0E0
F0E0
F0E0
F0E0
F0E0
F0E0
F0E0
F0E0
F0E0
F0E0
F0E0
F0E0
FFE0
7FC0
3F80
ENDCHAR
STARTCHAR 00DB
ENCODING 219
SWIDTH 585 0
DWIDTH 13 0
BBX 11 20 1 0
BITMAP
0E00
1F00
3980
0040
0000
F0E0
F0E0
F0E0
F0E0
F0E0
F0E0
F0E0
F0E0
F0E0
F0E0
F0E0
F0E0
FFE0
7FC0
3F80
ENDCHAR
STARTCHAR 00DC
ENCODING 220
SWIDTH 585 0
DWIDTH 13 0
BBX 11 20 1 0
BITMAP
31C0
31C0
31C0
0000
0000
F0E0
F0E0
F0E0
F0E0
F0E0
F0E0
F0E0
F0E0
F0E0
F0E0
F0E0
F0E0
FFE0
7FC0
3F80
ENDCHAR
STARTCHAR 00DD
ENCODING 221
SWIDTH 585 0
DWIDTH 13 0
BBX 13 20 0 0
BITMAP
01E0
0180
0380
0400
0000
F078
7870
78F0
3CE0
3DE0
1FC0
1FC0
0FC0
0F80
0780
0780
0780
0780
0780
0780
ENDCHAR
STARTCHAR 00DE
ENCODING 222
SWIDTH 585 0
DWIDTH 13 0
BBX 12 15 1 0
BITMAP
F000
F000
FF80
FFE0
FFE0
F0F0
F0F0
F0F0
F0F0
FFE0
FFC0
FF00
F000
F000
F000
ENDCHAR
STARTCHAR 00DF
ENCODING 223
SWIDTH 585 0
DWIDTH 13 0
BBX 13 17 0 -1
BITMAP
0FC0
1FE0
3FF0
3870
3870
F870
FBE0
3BC0
3BF0
3878
3878
3878
3878
3BF0
3BF0
3BC0
3800
ENDCHAR
STARTCHAR 00E0
ENCODING 224
SWIDTH 585 0
DWIDTH 13 0
BBX 12 17 1 0
BITMAP
3800
1C00
0C00
0E00
0000
0E00
3F80
7FC0
F1E0
01E0
1FE0
7FE0
F1E0
F1E0
F3E0
FFF0
7EF0
ENDCHAR
STARTCHAR 00E1
ENCODING 225
SWIDTH 585 0
DWIDTH 13 0
BBX 12 17 1 0
BITMAP
0780
0700
0E00
0C00
0000
0E00
3F80
7FC0
F1E0
01E0
1FE0
7FE0
F1E0
F1E0
F3E0
FFF0
7EF0
ENDCHAR
STARTCHAR 00E2
ENCODING 226
SWIDTH 585 0
DWIDTH 13 0
BBX 12 17 1 0
BITMAP
0E00
1F00
3B80
71C0
0000
0E00
3F80
7FC0
F1E0
01E0
1FE0
7FE0
F1E0
F1E0
F3E0
FFF0
7EF0
ENDCHAR
STARTCHAR 00E3
ENCODING 227
SWIDTH 585 0
DWIDTH 13 0
BBX 12 17 1 0
BITMAP
10C0
3CC0
7F80
6380
0000
0E00
3F80
7FC0
F1E0
01E0
1FE0
7FE0
F1E0
F1E0
F3E0
FFF0
7EF0
ENDCHAR
STARTCHAR 00E4
ENCODING 228
SWIDTH 585 0
DWIDTH 13 0
BBX 12 16 1 0
BITMAP
7180
7180
7180
0000
0E00
3F80
7FC0
F1E0
01E0
1FE0
7FE0
F1E0
F1E0
F3E0
FFF0
7EF0
ENDCHAR
STARTCHAR 00E5
ENCODING 229
SWIDTH 585 0
DWIDTH 13 0
BBX 12 17 1 0
BITMAP
1E00
1B00
1B00
0E00
0000
0E00
3F80
7FC0
F1E0
01E0
1FE0
7FE0
F1E0
F1E0
F3E0
FFF0
7EF0
ENDCHAR
STARTCHAR 00E6
ENCODING 230
SWIDTH 585 0
DWIDTH 13 0
BBX 13 12 0 0
BITMAP
1840
7FF0
7FF8
6718
0718
3FF8
7FF8
E700
E718
E7B8
FDF8
7DF0
ENDCHAR
STARTCHAR 00E7
ENCODING 231
SWIDTH 585 0
DWIDTH 13 0
BBX 11 17 1 -5
BITMAP
0E00
3F80
7FC0
F1E0
F0E0
F000
F000
F0E0
F0E0
71C0
7FC0
1F80
0000
0700
0100
1F00
0E00
ENDCHAR
STARTCHAR 00E8
ENCODING 232
SWIDTH 585 0
DWIDTH 13 0
BBX 11 17 1 0
BITMAP
1C00
1C00
0E00
0700
0000
0600
3F80
7FC0
F1E0
F0E0
FFE0
FFE0
F000
F0E0
71E0
7FC0
3F80
ENDCHAR
STARTCHAR 00E9
ENCODING 233
SWIDTH 585 0
DWIDTH 13 0
BBX 11 17 1 0
BITMAP
0380
0700
0600
0E00
0000
0600
3F80
7FC0
F1E0
F0E0
FFE0
FFE0
F000
F0E0
71E0
7FC0
3F80
ENDCHAR
STARTCHAR 00EA
ENCODING 234
SWIDTH 585 0
DWIDTH 13 0
BBX 11 17 1 0
BITMAP
0F00
1F00
1B80
39C0
0000
0600
3F80
7FC0
F1E0
F0E0
FFE0
FFE0
F000
F0E0
71E0
7FC0
3F80
ENDCHAR
STARTCHAR 00EB
ENCODING 235
SWIDTH 585 0
DWIDTH 13 0
BBX 11 16 1 0
BITMAP
39C0
39C0
39C0
0000
0600
3F80
7FC0
F1E0
F0E0
FFE0
FFE0
F000
F0E0
71E0
7FC0
3F80
ENDCHAR
STARTCHAR 00EC
ENCODING 236
SWIDTH 585 0
DWIDTH 13 0
BBX 11 17 2 0
BITMAP
3800
1C00
1C00
0E00
0000
0000
FE00
FE00
0E00
0E00
0E00
0E00
0E00
0E00
FFE0
FFE0
FFE0
ENDCHAR
STARTCHAR 00ED
ENCODING 237
SWIDTH 585 0
DWIDTH 13 0
BBX 11 17 2 0
BITMAP
0700
0700
0E00
1C00
0000
0000
FE00
FE00
0E00
0E00
0E00
0E00
0E00
0E00
FFE0
FFE0
FFE0
ENDCHAR
STARTCHAR 00EE
ENCODING 238
SWIDTH 585 0
DWIDTH 13 0
BBX 11 17 2 0
BITMAP
0E00
1F00
3B00
7380
0040
0000
FE00
FE00
0E00
0E00
0E00
0E00
0E00
0E00
FFE0
FFE0
FFE0
ENDCHAR
STARTCHAR 00EF
ENCODING 239
SWIDTH 585 0
DWIDTH 13 0
BBX 11 16 2 0
BITMAP
7380
7380
7380
0000
0000
FE00
FE00
0E00
0E00
0E00
0E00
0E00
0E00
FFE0
FFE0
FFE0
ENDCHAR
STARTCHAR 00F0
ENCODING 240
SWIDTH 585 0
DWIDTH 13 0
BBX 12 16 1 0
BITMAP
7B00
1E00
7F00
2780
03C0
3FC0
7FE0
F1E0
F0E0
F0E0
F0F0
F0E0
F0E0
71E0
7FC0
1F80
ENDCHAR
STARTCHAR 00F1
ENCODING 241
SWIDTH 585 0
DWIDTH 13 0
BBX 10 17 2 0
BITMAP
3080
7D80
FF80
C700
0000
0600
FF80
FFC0
E3C0
E3C0
E3C0
E3C0
E3C0
E3C0
E3C0
E3C0
E3C0
ENDCHAR
STARTCHAR 00F2
ENCODING 242
SWIDTH 585 0
DWIDTH 13 0
BBX 11 17 1 0
BITMAP
3C00
1C00
0E00
0600
0000
0600
3F80
7FC0
F1E0
F0E0
F0E0
F0E0
F0E0
F0E0
71E0
7FC0
1F80
ENDCHAR
STARTCHAR 00F3
ENCODING 243
SWIDTH 585 0
DWIDTH 13 0
BBX 11 17 1 0
BITMAP
0380
0700
0600
0E00
0000
0600
3F80
7FC0
F1E0
F0E0
F0E0
F0E0
F0E0
F0E0
71E0
7FC0
1F80
ENDCHAR
STARTCHAR 00F4
ENCODING 244
SWIDTH 585 0
DWIDTH 13 0
BBX 11 17 1 0
BITMAP
0E00
1F00
1B80
31C0
4000
0600
3F80
7FC0
F1E0
F0E0
F0E0
F0E0
F0E0
F0E0
71E0
7FC0
1F80
ENDCHAR
STARTCHAR 00F5
ENCODING 245
SWIDTH 585 0
DWIDTH 13 0
BBX 11 17 1 0
BITMAP
1040
3EC0
7FC0
6380
0000
0600
3F80
7FC0
F1E0
F0E0
F0E0
F0E0
F0E0
F0E0
71E0
7FC0
1F80
ENDCHAR
STARTCHAR 00F6
ENCODING 246
SWIDTH 585 0
DWIDTH 13 0
BBX 11 16 1 0
BITMAP
31C0
31C0
31C0
0000
0600
3F80
7FC0
F1E0
F0E0
F0E0
F0E0
F0E0
F0E0
71E0
7FC0
1F80
ENDCHAR
STARTCHAR 00F7
ENCODING 247
SWIDTH 585 0
DWIDTH 13 0
BBX 11 10 1 1
BITMAP
0E00
0E00
0E00
0000
FFE0
FFE0
FFE0
0000
0E00
0E00
ENDCHAR
STARTCHAR 00F8
ENCODING 248
SWIDTH 585 0
DWIDTH 13 0
BBX 11 14 1 -1
BITMAP
0060
06C0
3FC0
7FC0
F3E0
F3E0
F6E0
F4E0
FCE0
F8E0
71E0
7FC0
7F80
E000
ENDCHAR
STARTCHAR 00F9
ENCODING 249
SWIDTH 585 0
DWIDTH 13 0
BBX 12 17 1 0
BITMAP
3800
1C00
0C00
0600
0000
0000
F1E0
F1E0
F1E0
F1E0
F1E0
F1E0
F1E0
F1E0
FBE0
7FF0
3EF0
ENDCHAR
STARTCHAR 00FA
ENCODING 250
SWIDTH 585 0
DWIDTH 13 0
BBX 12 17 1 0
BITMAP
0380
0700
0600
0C00
0000
0000
F1E0
F1E0
F1E0
F1E0
F1E0
F1E0
F1E0
F1E0
FBE0
7FF0
3EF0
ENDCHAR
STARTCHAR 00FB
ENCODING 251
SWIDTH 585 0
DWIDTH 13 0
BBX 12 17 1 0
BITMAP
0E00
1F00
3B80
71C0
0000
0000
F1E0
F1E0
F1E0
F1E0
F1E0
F1E0
F1E0
F1E0
FBE0
7FF0
3EF0
ENDCHAR
STARTCHAR 00FC
ENCODING 252
SWIDTH 585 0
DWIDTH 13 0
BBX 12 16 1 0
BITMAP
71C0
71C0
71C0
0000
0000
F1E0
F1E0
F1E0
F1E0
F1E0
F1E0
F1E0
F1E0
FBE0
7FF0
3EF0
ENDCHAR
STARTCHAR 00FD
ENCODING 253
SWIDTH 585 0
DWIDTH 13 0
BBX 12 21 1 -4
BITMAP
0380
0700
0700
0E00
0000
0010
F0E0
F0E0
71E0
79C0
39C0
3B80
3F80
1F80
1F00
0F00
0F00
0E00
9E00
7C00
7800
ENDCHAR
STARTCHAR 00FE
ENCODING 254
SWIDTH 585 0
DWIDTH 13 0
BBX 11 20 2 -4
BITMAP
E000
E000
E000
E000
E600
FF80
FFC0
E1C0
E1C0
E1C0
E1E0
E1C0
E1C0
F3C0
FF80
EF00
E000
E000
E000
E000
ENDCHAR
STARTCHAR 00FF
ENCODING 255
SWIDTH 585 0
DWIDTH 13 0
BBX 12 20 1 -4
BITMAP
39C0
39C0
39C0
0000
0010
F0E0
F0E0
71E0
79C0
39C0
3B80
3F80
1F80
1F00
0F00
0F00
0E00
9E00
7C00
7800
ENDCHAR
STARTCHAR 0100
ENCODING 256
SWIDTH 585 0
DWIDTH 13 0
BBX 13 19 0 0
BITMAP
1FC0
1FC0
0000
0000
0F80
0F80
0FC0
1DC0
1DC0
1DE0
3DE0
38E0
38E0
3FF0
7FF0
7FF0
7078
7078
F078
ENDCHAR
STARTCHAR 0101
ENCODING 257
SWIDTH 585 0
DWIDTH 13 0
BBX 12 15 1 0
BITMAP
3F80
0000
0000
0E00
3F80
7FC0
F1E0
01E0
1FE0
7FE0
F1E0
F1E0
F3E0
FFF0
7EF0
ENDCHAR
STARTCHAR 0102
ENCODING 258
SWIDTH 585 0
DWIDTH 13 0
BBX 13 20 0 0
BITMAP
1860
1DC0
0F80
0000
0000
0F80
0F80
0FC0
1DC0
1DC0
1DE0
3DE0
38E0
38E0
3FF0
7FF0
7FF0
7078
7078
F078
ENDCHAR
STARTCHAR 0103
ENCODING 259
SWIDTH 585 0
DWIDTH 13 0
BBX 12 17 1 0
BITMAP
60C0
3180
3F80
1F00
0000
0E00
3F80
7FC0
F1E0
01E0
1FE0
7FE0
F1E0
F1E0
F3E0
FFF0
7EF0
ENDCHAR
STARTCHAR 0104
ENCODING 260
SWIDTH 585 0
DWIDTH 13 0
BBX 14 18 0 -3
BITMAP
0F80
0F80
0FC0
1DC0
1DC0
1DE0
3DE0
38E0
38E0
3FF0
7FF0
7FF0
7078
7078
F078
0070
0060
007C
ENDCHAR
STARTCHAR 0105
ENCODING 261
SWIDTH 585 0
DWIDTH 13 0
BBX 13 15 1 -3
BITMAP
0E00
3F80
7FC0
F1E0
01E0
1FE0
7FE0
F1E0
F1E0
F3E0
FFF0
7EF0
00E0
00C0
00F8
ENDCHAR
STARTCHAR 0106
ENCODING 262
SWIDTH 585 0
DWIDTH 13 0
BBX 13 20 0 0
BITMAP
01E0
0180
0380
0400
0000
1FC0
3FE0
7CF0
7870
F070
F078
F000
F000
F000
F078
7070
7870
7FF0
3FE0
1FC0
ENDCHAR
STARTCHAR 0107
ENCODING 263
SWIDTH 585 0
DWIDTH 13 0
BBX 11 17 1 0
BITMAP
0380
0700
0600
0E00
0000
0E00
3F80
7FC0
F1E0
F0E0
F000
F000
F0E0
F0E0
71C0
7FC0
1F80
ENDCHAR
STARTCHAR 0108
ENCODING 264
SWIDTH 585 0
DWIDTH 13 0
BBX 13 20 0 0
BITMAP
0700
0F80
1CC0
0020
0000
1FC0
3FE0
7CF0
7870
F070
F078
F000
F000
F000
F078
7070
7870
7FF0
3FE0
1FC0
ENDCHAR
STARTCHAR 0109
ENCODING 265
SWIDTH 585 0
DWIDTH 13 0
BBX 11 17 1 0
BITMAP
0E00
1F00
3B80
71C0
0000
0E00
3F80
7FC0
F1E0
F0E0
F000
F000
F0E0
F0E0
71C0
7FC0
1F80
ENDCHAR
STARTCHAR 010A
ENCODING 266
SWIDTH 585 0
DWIDTH 13 0
BBX 13 19 0 0
BITMAP
0700
0700
0000
0000
1FC0
3FE0
7CF0
7870
F070
F078
F000
F000
F000
F078
7070
7870
7FF0
3FE0
1FC0
ENDCHAR
STARTCHAR 010B
ENCODING 267
SWIDTH 585 0
DWIDTH 13 0
BBX 11 16 1 0
BITMAP
0E00
0E00
0000
0000
0E00
3F80
7FC0
F1E0
F0E0
F000
F000
F0E0
F0E0
71C0
7FC0
1F80
ENDCHAR
STARTCHAR 010C
ENCODING 268
SWIDTH 585 0
DWIDTH 13 0
BBX 13 20 0 0
BITMAP
18E0
0DC0
0F80
0000
0000
1FC0
3FE0
7CF0
7870
F070
F078
F000
F000
F000
F078
7070
7870
7FF0
3FE0
1FC0
ENDCHAR
STARTCHAR 010D
ENCODING 269
SWIDTH 585 0
DWIDTH 13 0
BBX 11 17 1 0
BITMAP
71C0
3B80
1F00
0E00
0000
0E00
3F80
7FC0
F1E0
F0E0
F000
F000
F0E0
F0E0
71C0
7FC0
1F80
ENDCHAR
STARTCHAR 010E
ENCODING 270
SWIDTH 585 0
DWIDTH 13 0
BBX 12 20 1 0
BITMAP
31C0
1B80
1F00
0000
0000
FF80
FFE0
FFE0
F0F0
F0F0
F0F0
F0F0
F0F0
F0F0
F0F0
F0F0
F0F0
FFE0
FFC0
FF80
ENDCHAR
STARTCHAR 010F
ENCODING 271
SWIDTH 585 0
DWIDTH 13 0
BBX 15 16 1 0
BITMAP
01E0
01EE
01EE
01EE
09E6
3FE6
7FEC
F1E0
E1E0
E1E0
E1E0
E1E0
E1E0
F1E0
7FE0
3EE0
ENDCHAR
STARTCHAR 0110
ENCODING 272
SWIDTH 585 0
DWIDTH 13 0
BBX 13 15 0 0
BITMAP
7FC0
7FF0
7FF0
7878
7878
7878
FF78
FF78
FF78
7878
7878
7878
7FF0
7FE0
7FC0
ENDCHAR
STARTCHAR 0111
ENCODING 273
SWIDTH 585 0
DWIDTH 13 0
BBX 12 16 1 0
BITMAP
01E0
0FF0
0FF0
0FF0
09E0
3FE0
7FE0
F1E0
E1E0
E1E0
E1E0
E1E0
E1E0
F1E0
7FE0
3EE0
ENDCHAR
STARTCHAR 0112
ENCODING 274
SWIDTH 585 0
DWIDTH 13 0
BBX 10 19 2 0
BITMAP
7F80
7F80
0000
0000
FFC0
FFC0
FFC0
E000
E000
E000
FF80
FF80
FF80
E000
E000
E000
FFC0
FFC0
FFC0
ENDCHAR
STARTCHAR 0113
ENCODING 275
SWIDTH 585 0
DWIDTH 13 0
BBX 11 15 1 0
BITMAP
3FC0
0000
0000
0600
3F80
7FC0
F1E0
F0E0
FFE0
FFE0
F000
F0E0
71E0
7FC0
3F80
ENDCHAR
STARTCHAR 0114
ENCODING 276
SWIDTH 585 0
DWIDTH 13 0
BBX 10 20 2 0
BITMAP
6180
7300
3F00
0000
0000
FFC0
FFC0
FFC0
E000
E000
E000
FF80
FF80
FF80
E000
E000
E000
FFC0
FFC0
FFC0
ENDCHAR
STARTCHAR 0115
ENCODING 277
SWIDTH 585 0
DWIDTH 13 0
BBX 11 17 1 0
BITMAP
30C0
30C0
3F80
0F00
0000
0600
3F80
7FC0
F1E0
F0E0
FFE0
FFE0
F000
F0E0
71E0
7FC0
3F80
ENDCHAR
STARTCHAR 0116
ENCODING 278
SWIDTH 585 0
DWIDTH 13 0
BBX 10 19 2 0
BITMAP
1C00
1C00
0000
0000
FFC0
FFC0
FFC0
E000
E000
E000
FF80
FF80
FF80
E000
E000
E000
FFC0
FFC0
FFC0
ENDCHAR
STARTCHAR 0117
ENCODING 279
SWIDTH 585 0
DWIDTH 13 0
BBX 11 16 1 0
BITMAP
0E00
0E00
0000
0000
0600
3F80
7FC0
F1E0
F0E0
FFE0
FFE0
F000
F0E0
71E0
7FC0
3F80
ENDCHAR
STARTCHAR 0118
ENCODING 280
SWIDTH 585 0
DWIDTH 13 0
BBX 11 18 2 -3
BITMAP
FFC0
FFC0
FFC0
E000
E000
E000
FF80
FF80
FF80
E000
E000
E000
FFC0
FFC0
FFC0
0300
0300
03E0
ENDCHAR
STARTCHAR 0119
ENCODING 281
SWIDTH 585 0
DWIDTH 13 0
BBX 11 15 1 -3
BITMAP
0600
3F80
7FC0
F1E0
F0E0
FFE0
FFE0
F000
F0E0
71E0
7FC0
3F80
0600
0E00
0780
ENDCHAR
STARTCHAR 011A
ENCODING 282
SWIDTH 585 0
DWIDTH 13 0
BBX 10 20 2 0
BITMAP
6380
3700
1E00
0000
0000
FFC0
FFC0
FFC0
E000
E000
E000
FF80
FF80
FF80
E000
E000
E000
FFC0
FFC0
FFC0
ENDCHAR
STARTCHAR 011B
ENCODING 283
SWIDTH 585 0
DWIDTH 13 0
BBX 11 17 1 0
BITMAP
71C0
1980
1F00
0F00
0000
0600
3F80
7FC0
F1E0
F0E0
FFE0
FFE0
F000
F0E0
71E0
7FC0
3F80
ENDCHAR
STARTCHAR 011C
ENCODING 284
SWIDTH 585 0
DWIDTH 13 0
BBX 13 20 0 0
BITMAP
0700
0F80
1CC0
2020
0000
1FC0
3FE0
7CF0
7870
F078
F000
F000
F3F8
F3F8
F078
7078
7878
7FF8
3FF8
1F98
ENDCHAR
STARTCHAR 011D
ENCODING 285
SWIDTH 585 0
DWIDTH 13 0
BBX 13 20 1 -4
BITMAP
0E00
1F00
3980
4078
0E70
3FE0
79C0
70E0
70E0
79E0
3FC0
7F00
E000
FFC0
7FE0
7FF0
E070
E070
FFF0
7FE0
ENDCHAR
STARTCHAR 011E
ENCODING 286
SWIDTH 585 0
DWIDTH 13 0
BBX 13 20 0 0
BITMAP
18C0
1DC0
0F80
0000
0000
1FC0
3FE0
7CF0
7870
F078
F000
F000
F3F8
F3F8
F078
7078
7878
7FF8
3FF8
1F98
ENDCHAR
STARTCHAR 011F
ENCODING 287
SWIDTH 585 0
DWIDTH 13 0
BBX 12 21 1 -4
BITMAP
30C0
31C0
3F80
1F00
0070
0EE0
3FC0
79C0
70E0
70E0
79E0
3FC0
7F00
E000
FFC0
7FE0
7FF0
E070
E070
FFF0
7FE0
ENDCHAR
STARTCHAR 0120
ENCODING 288
SWIDTH 585 0
DWIDTH 13 0
BBX 13 19 0 0
BITMAP
0700
0700
0000
0000
1FC0
3FE0
7CF0
7870
F078
F000
F000
F3F8
F3F8
F078
7078
7878
7FF8
3FF8
1F98
ENDCHAR
STARTCHAR 0121
ENCODING 289
SWIDTH 585 0
DWIDTH 13 0
BBX 12 20 1 -4
BITMAP
0E00
0E00
0000
0070
0EE0
3FC0
79C0
70E0
70E0
79E0
3FC0
7F00
E000
FFC0
7FE0
7FF0
E070
E070
FFF0
7FE0
ENDCHAR
STARTCHAR 0122
ENCODING 290
SWIDTH 585 0
DWIDTH 13 0
BBX 13 23 0 -8
BITMAP
1FC0
3FE0
7CF0
7870
F078
F000
F000
F3F8
F3F8
F078
7078
7878
7FF8
3FF8
1F98
0000
0000
0700
0700
0700
0300
0300
0600
ENDCHAR
STARTCHAR 0123
ENCODING 291
SWIDTH 585 0
DWIDTH 13 0
BBX 12 24 1 -4
BITMAP
0600
0400
0C00
0E00
0E00
0E00
0E00
0070
0EE0
3FC0
79C0
70E0
70E0
79E0
3FC0
7F00
E000
FFC0
7FE0
7FF0
E070
E070
FFF0
7FE0
ENDCHAR
STARTCHAR 0124
ENCODING 292
SWIDTH 585 0
DWIDTH 13 0
BBX 11 20 1 0
BITMAP
0E00
1F00
3980
0040
0000
F0E0
F0E0
F0E0
F0E0
F0E0
F0E0
FFE0
FFE0
FFE0
F0E0
F0E0
F0E0
F0E0
F0E0
F0E0
ENDCHAR
STARTCHAR 0125
ENCODING 293
SWIDTH 585 0
DWIDTH 13 0
BBX 13 20 -1 0
BITMAP
3C00
3E00
6700
8000
1C00
1C00
1C00
1C00
1CC0
1FF0
1FF8
1C78
1C78
1C78
1C78
1C78
1C78
1C78
1C78
1C78
ENDCHAR
STARTCHAR 0126
ENCODING 294
SWIDTH 585 0
DWIDTH 13 0
BBX 13 15 0 0
BITMAP
7870
7870
FFF8
FFF8
7870
7870
7FF0
7FF0
7FF0
7870
7870
7870
7870
7870
7870
ENDCHAR
STARTCHAR 0127
ENCODING 295
SWIDTH 585 0
DWIDTH 13 0
BBX 12 16 0 0
BITMAP
3800
FF80
FF80
FF80
3980
3FE0
3FF0
38F0
38F0
38F0
38F0
38F0
38F0
38F0
38F0
38F0
ENDCHAR
STARTCHAR 0128
ENCODING 296
SWIDTH 585 0
DWIDTH 13 0
BBX 10 20 2 0
BITMAP
3180
7F80
CF00
0000
0000
FFC0
FFC0
1E00
1E00
1E00
1E00
1E00
1E00
1E00
1E00
1E00
1E00
FFC0
FFC0
FFC0
ENDCHAR
STARTCHAR 0129
ENCODING 297
SWIDTH 585 0
DWIDTH 13 0
BBX 11 17 2 0
BITMAP
10C0
7CC0
7F80
4700
0000
0000
FE00
FE00
0E00
0E00
0E00
0E00
0E00
0E00
FFE0
FFE0
FFE0
ENDCHAR
STARTCHAR 012A
ENCODING 298
SWIDTH 585 0
DWIDTH 13 0
BBX 10 19 2 0
BITMAP
7F00
7F00
0000
0000
FFC0
FFC0
1E00
1E00
1E00
1E00
1E00
1E00
1E00
1E00
1E00
1E00
FFC0
FFC0
FFC0
ENDCHAR
STARTCHAR 012B
ENCODING 299
SWIDTH 585 0
DWIDTH 13 0
BBX 11 15 2 0
BITMAP
7F80
0000
0000
0000
FE00
FE00
0E00
0E00
0E00
0E00
0E00
0E00
FFE0
FFE0
FFE0
ENDCHAR
STARTCHAR 012C
ENCODING 300
SWIDTH 585 0
DWIDTH 13 0
BBX 10 20 2 0
BITMAP
6180
7700
3E00
0000
0000
FFC0
FFC0
1E00
1E00
1E00
1E00
1E00
1E00
1E00
1E00
1E00
1E00
FFC0
FFC0
FFC0
ENDCHAR
STARTCHAR 012D
ENCODING 301
SWIDTH 585 0
DWIDTH 13 0
BBX 11 17 2 0
BITMAP
6180
6180
3F80
1E00
0000
0000
FE00
FE00
0E00
0E00
0E00
0E00
0E00
0E00
FFE0
FFE0
FFE0
ENDCHAR
STARTCHAR 012E
ENCODING 302
SWIDTH 585 0
DWIDTH 13 0
BBX 10 18 2 -3
BITMAP
FFC0
FFC0
1E00
1E00
1E00
1E00
1E00
1E00
1E00
1E00
1E00
1E00
FFC0
FFC0
FFC0
0600
0600
07C0
ENDCHAR
STARTCHAR 012F
ENCODING 303
SWIDTH 585 0
DWIDTH 13 0
BBX 11 19 2 -3
BITMAP
0E00
0E00
0000
0000
0000
FE00
FE00
0E00
0E00
0E00
0E00
0E00
0E00
FFE0
FFE0
FFE0
0C00
0C00
0F80
ENDCHAR
STARTCHAR 0130
ENCODING 304
SWIDTH 585 0
DWIDTH 13 0
BBX 10 19 2 0
BITMAP
1C00
1C00
0000
0000
FFC0
FFC0
1E00
1E00
1E00
1E00
1E00
1E00
1E00
1E00
1E00
1E00
FFC0
FFC0
FFC0
ENDCHAR
STARTCHAR 0131
ENCODING 305
SWIDTH 585 0
DWIDTH 13 0
BBX 11 11 2 0
BITMAP
FE00
FE00
0E00
0E00
0E00
0E00
0E00
0E00
FFE0
FFE0
FFE0
ENDCHAR
STARTCHAR 0132
ENCODING 306
SWIDTH 585 0
DWIDTH 13 0
BBX 11 15 1 0
BITMAP
F0E0
F0E0
F0E0
F0E0
F0E0
F0E0
F0E0
F0E0
F0E0
00E0
F0E0
F1E0
FBE0
7FC0
3F80
ENDCHAR
STARTCHAR 0133
ENCODING 307
SWIDTH 585 0
DWIDTH 13 0
BBX 11 20 1 -4
BITMAP
F1E0
F1E0
F1E0
0000
0000
73E0
73E0
71E0
71E0
71E0
71E0
71E0
71E0
71E0
71E0
71E0
01E0
11E0
0FC0
0F80
ENDCHAR
STARTCHAR 0134
ENCODING 308
SWIDTH 585 0
DWIDTH 13 0
BBX 12 20 2 0
BITMAP
03C0
07E0
0E70
0000
0000
03C0
03C0
03C0
03C0
03C0
03C0
03C0
03C0
03C0
03C0
E3C0
E3C0
F780
FF80
7F00
ENDCHAR
STARTCHAR 0135
ENCODING 309
SWIDTH 585 0
DWIDTH 13 0
BBX 10 21 2 -4
BITMAP
0E00
1F00
3B00
7180
0040
0000
FE00
FE00
0E00
0E00
0E00
0E00
0E00
0E00
0E00
0E00
0E00
0E00
9E00
FC00
F800
ENDCHAR
STARTCHAR 0136
ENCODING 310
SWIDTH 585 0
DWIDTH 13 0
BBX 12 23 1 -8
BITMAP
F0F0
F1E0
F1C0
F3C0
F780
F780
FF00
FF00
FF80
FF80
F3C0
F3C0
F1E0
F1E0
F0F0
0000
0000
0E00
0E00
0E00
0600
0600
0C00
ENDCHAR
STARTCHAR 0137
ENCODING 311
SWIDTH 585 0
DWIDTH 13 0
BBX 12 24 1 -8
BITMAP
F000
F000
F000
F000
F010
F1E0
F3C0
F380
F780
FF00
FF00
FF80
FF80
F3C0
F1E0
F1F0
0000
0000
0E00
0E00
0E00
0600
0600
0C00
ENDCHAR
STARTCHAR 0138
ENCODING 312
SWIDTH 585 0
DWIDTH 13 0
BBX 12 11 1 0
BITMAP
F1F0
F3C0
F380
F780
FF00
FF00
FF80
FF80
F3C0
F1E0
F1F0
ENDCHAR
STARTCHAR 0139
ENCODING 313
SWIDTH 585 0
DWIDTH 13 0
BBX 10 20 2 0
BITMAP
3C00
3800
7000
8000
0000
F000
F000
F000
F000
F000
F000
F000
F000
F000
F000
F000
F000
FFC0
FFC0
FFC0
ENDCHAR
STARTCHAR 013A
ENCODING 314
SWIDTH 585 0
DWIDTH 13 0
BBX 11 20 1 0
BITMAP
03C0
0300
0700
0800
FF00
FF00
FF00
0F00
0F00
0F00
0F00
0F00
0F00
0F00
0F00
0F00
0F00
FFE0
FFE0
FFE0
ENDCHAR
STARTCHAR 013B
ENCODING 315
SWIDTH 585 0
DWIDTH 13 0
BBX 10 23 2 -8
BITMAP
F000
F000
F000
F000
F000
F000
F000
F000
F000
F000
F000
F000
FFC0
FFC0
FFC0
0000
0000
0E00
0E00
0E00
0400
0400
0C00
ENDCHAR
STARTCHAR 013C
ENCODING 316
SWIDTH 585 0
DWIDTH 13 0
BBX 11 24 1 -8
BITMAP
FF00
FF00
FF00
0F00
0F00
0F00
0F00
0F00
0F00
0F00
0F00
0F00
0F00
FFE0
FFE0
FFE0
0000
0000
0E00
0E00
0E00
0600
0600
0C00
ENDCHAR
STARTCHAR 013D
ENCODING 317
SWIDTH 585 0
DWIDTH 13 0
BBX 10 15 2 0
BITMAP
F380
F380
F380
F080
F180
F300
F000
F000
F000
F000
F000
F000
FFC0
FFC0
FFC0
ENDCHAR
STARTCHAR 013E
ENCODING 318
SWIDTH 585 0
DWIDTH 13 0
BBX 12 16 1 0
BITMAP
FF00
FF70
FF70
0F70
0F30
0F30
0F60
0F00
0F00
0F00
0F00
0F00
0F00
FFE0
FFE0
FFE0
ENDCHAR
STARTCHAR 013F
ENCODING 319
SWIDTH 585 0
DWIDTH 13 0
BBX 10 15 2 0
BITMAP
F000
F000
F000
F000
F3C0
F3C0
F3C0
F3C0
F000
F000
F000
F000
FFC0
FFC0
FFC0
ENDCHAR
STARTCHAR 0140
ENCODING 320
SWIDTH 585 0
DWIDTH 13 0
BBX 14 16 1 0
BITMAP
FF00
FF00
FF00
0F00
0F00
0F00
0F1C
0F1C
0F1C
0F00
0F00
0F00
0F00
FFE0
FFE0
FFE0
ENDCHAR
STARTCHAR 0141
ENCODING 321
SWIDTH 585 0
DWIDTH 13 0
BBX 11 15 1 0
BITMAP
7800
7800
7800
7800
7900
7E00
7E00
7800
F800
F800
7800
7800
7FE0
7FE0
7FE0
ENDCHAR
STARTCHAR 0142
ENCODING 322
SWIDTH 585 0
DWIDTH 13 0
BBX 11 16 1 0
BITMAP
FF00
FF00
FF00
0F00
0F20
0FE0
0FC0
0F00
3F00
7F00
4F00
0F00
0F00
FFE0
FFE0
FFE0
ENDCHAR
STARTCHAR 0143
ENCODING 323
SWIDTH 585 0
DWIDTH 13 0
BBX 11 20 1 0
BITMAP
03C0
0300
0700
0800
0000
F0E0
F0E0
F8E0
F8E0
FCE0
FCE0
FEE0
FEE0
F7E0
F7E0
F3E0
F3E0
F3E0
F1E0
F1E0
ENDCHAR
STARTCHAR 0144
ENCODING 324
SWIDTH 585 0
DWIDTH 13 0
BBX 10 17 2 0
BITMAP
0700
0E00
0C00
1C00
0000
0600
FF80
FFC0
E3C0
E3C0
E3C0
E3C0
E3C0
E3C0
E3C0
E3C0
E3C0
ENDCHAR
STARTCHAR 0145
ENCODING 325
SWIDTH 585 0
DWIDTH 13 0
BBX 11 23 1 -8
BITMAP
F0E0
F0E0
F8E0
F8E0
FCE0
FCE0
FEE0
FEE0
F7E0
F7E0
F3E0
F3E0
F3E0
F1E0
F1E0
0000
0000
0E00
0E00
0E00
0600
0600
0C00
ENDCHAR
STARTCHAR 0146
ENCODING 326
SWIDTH 585 0
DWIDTH 13 0
BBX 10 20 2 -8
BITMAP
0600
FF80
FFC0
E3C0
E3C0
E3C0
E3C0
E3C0
E3C0
E3C0
E3C0
E3C0
0000
0000
1C00
1C00
1C00
0C00
0C00
1800
ENDCHAR
STARTCHAR 0147
ENCODING 327
SWIDTH 585 0
DWIDTH 13 0
BBX 11 20 1 0
BITMAP
31C0
1B80
1F00
0000
0000
F0E0
F0E0
F8E0
F8E0
FCE0
FCE0
FEE0
FEE0
F7E0
F7E0
F3E0
F3E0
F3E0
F1E0
F1E0
ENDCHAR
STARTCHAR 0148
ENCODING 328
SWIDTH 585 0
DWIDTH 13 0
BBX 10 17 2 0
BITMAP
E380
7700
3E00
1C00
0000
0600
FF80
FFC0
E3C0
E3C0
E3C0
E3C0
E3C0
E3C0
E3C0
E3C0
E3C0
ENDCHAR
STARTCHAR 0149
ENCODING 329
SWIDTH 585 0
DWIDTH 13 0
BBX 12 18 0 0
BITMAP
E000
E000
E000
2000
6000
C000
0180
3FE0
3FF0
38F0
38F0
38F0
38F0
38F0
38F0
38F0
38F0
38F0
ENDCHAR
STARTCHAR 014A
ENCODING 330
SWIDTH 585 0
DWIDTH 13 0
BBX 11 19 1 -4
BITMAP
F0E0
F0E0
F8E0
F8E0
FCE0
FCE0
FEE0
FEE0
F7E0
F7E0
F7E0
F3E0
F3E0
F1E0
F1E0
00E0
01E0
07E0
07C0
ENDCHAR
STARTCHAR 014B
ENCODING 331
SWIDTH 585 0
DWIDTH 13 0
BBX 10 16 2 -4
BITMAP
0600
FF80
FFC0
E3C0
E3C0
E3C0
E3C0
E3C0
E3C0
E3C0
E3C0
E3C0
03C0
03C0
0FC0
0F80
ENDCHAR
STARTCHAR 014C
ENCODING 332
SWIDTH 585 0
DWIDTH 13 0
BBX 13 19 0 0
BITMAP
1FC0
1FC0
0000
0000
1FC0
3FF0
7CF0
7878
F078
F078
F078
F078
F078
F078
7078
7878
7FF0
3FE0
1FC0
ENDCHAR
STARTCHAR 014D
ENCODING 333
SWIDTH 585 0
DWIDTH 13 0
BBX 11 15 1 0
BITMAP
3F80
0000
0000
0600
3F80
7FC0
F1E0
F0E0
F0E0
F0E0
F0E0
F0E0
71E0
7FC0
1F80
ENDCHAR
STARTCHAR 014E
ENCODING 334
SWIDTH 585 0
DWIDTH 13 0
BBX 13 20 0 0
BITMAP
1860
1DC0
0F80
0000
0000
1FC0
3FF0
7CF0
7878
F078
F078
F078
F078
F078
F078
7078
7878
7FF0
3FE0
1FC0
ENDCHAR
STARTCHAR 014F
ENCODING 335
SWIDTH 585 0
DWIDTH 13 0
BBX 11 17 1 0
BITMAP
30C0
31C0
3F80
1F00
0000
0600
3F80
7FC0
F1E0
F0E0
F0E0
F0E0
F0E0
F0E0
71E0
7FC0
1F80
ENDCHAR
STARTCHAR 0150
ENCODING 336
SWIDTH 585 0
DWIDTH 13 0
BBX 13 20 0 0
BITMAP
0770
0E60
0CC0
1100
0000
1FC0
3FF0
7CF0
7878
F078
F078
F078
F078
F078
F078
7078
7878
7FF0
3FE0
1FC0
ENDCHAR
STARTCHAR 0151
ENCODING 337
SWIDTH 585 0
DWIDTH 13 0
BBX 12 16 1 0
BITMAP
1EF0
1DC0
3980
0000
0600
3F80
7FC0
F1E0
F0E0
F0E0
F0E0
F0E0
F0E0
71E0
7FC0
1F80
ENDCHAR
STARTCHAR 0152
ENCODING 338
SWIDTH 585 0
DWIDTH 13 0
BBX 13 15 0 0
BITMAP
1FF8
3FF8
7FF0
71C0
F1C0
F1C0
F1F0
F1F0
F1F0
F1C0
F1C0
71C0
7FF8
3FF8
1FF8
ENDCHAR
STARTCHAR 0153
ENCODING 339
SWIDTH 585 0
DWIDTH 13 0
BBX 13 12 0 0
BITMAP
1840
7DF0
7FF8
E718
E718
E7F8
E7F8
E700
E718
E7B8
7FF8
3DF0
ENDCHAR
STARTCHAR 0154
ENCODING 340
SWIDTH 585 0
DWIDTH 13 0
BBX 13 20 1 0
BITMAP
03C0
0300
0700
0800
0000
FFC0
FFE0
FFF0
F0F0
F0F0
F0F0
FFE0
FFC0
FFE0
F1E0
F0F0
F0F0
F0F0
F0F0
F078
ENDCHAR
STARTCHAR 0155
ENCODING 341
SWIDTH 585 0
DWIDTH 13 0
BBX 12 17 1 0
BITMAP
0380
0700
0700
0E00
0000
0080
FBE0
FFF0
3CF0
3C70
3C00
3C00
3C00
3C00
FFC0
FFC0
FFC0
ENDCHAR
STARTCHAR 0156
ENCODING 342
SWIDTH 585 0
DWIDTH 13 0
BBX 13 23 1 -8
BITMAP
FFC0
FFE0
FFF0
F0F0
F0F0
F0F0
FFE0
FFC0
FFE0
F1E0
F0F0
F0F0
F0F0
F0F0
F078
0000
0000
0E00
0E00
0E00
0200
0600
0E00
ENDCHAR
STARTCHAR 0157
ENCODING 343
SWIDTH 585 0
DWIDTH 13 0
BBX 12 20 1 -8
BITMAP
0080
FBE0
FFF0
3CF0
3C70
3C00
3C00
3C00
3C00
FFC0
FFC0
FFC0
0000
0000
0E00
0E00
0E00
0600
0400
0C00
ENDCHAR
STARTCHAR 0158
ENCODING 344
SWIDTH 585 0
DWIDTH 13 0
BBX 13 20 1 0
BITMAP
31C0
1B80
1F00
0000
0000
FFC0
FFE0
FFF0
F0F0
F0F0
F0F0
FFE0
FFC0
FFE0
F1E0
F0F0
F0F0
F0F0
F0F0
F078
ENDCHAR
STARTCHAR 0159
ENCODING 345
SWIDTH 585 0
DWIDTH 13 0
BBX 12 17 1 0
BITMAP
39C0
1980
1F00
0F00
0000
0080
FBE0
FFF0
3CF0
3C70
3C00
3C00
3C00
3C00
FFC0
FFC0
FFC0
ENDCHAR
STARTCHAR 015A
ENCODING 346
SWIDTH 585 0
DWIDTH 13 0
BBX 13 20 0 0
BITMAP
01E0
0180
0380
0400
0000
1FE0
3FF0
78F0
7878
7800
7E00
7FE0
3FF0
07F8
00F8
F078
7078
7FF0
3FF0
1FC0
ENDCHAR
STARTCHAR 015B
ENCODING 347
SWIDTH 585 0
DWIDTH 13 0
BBX 11 17 1 0
BITMAP
0380
0700
0600
0E00
0000
0E00
3FC0
7FC0
70E0
F800
7F80
3FE0
07E0
E0E0
F0E0
7FC0
3F80
ENDCHAR
STARTCHAR 015C
ENCODING 348
SWIDTH 585 0
DWIDTH 13 0
BBX 13 20 0 0
BITMAP
0700
0F80
1CC0
0020
0000
1FE0
3FF0
78F0
7878
7800
7E00
7FE0
3FF0
07F8
00F8
F078
7078
7FF0
3FF0
1FC0
ENDCHAR
STARTCHAR 015D
ENCODING 349
SWIDTH 585 0
DWIDTH 13 0
BBX 11 17 1 0
BITMAP
0E00
1F00
1B80
31C0
4000
0E00
3FC0
7FC0
70E0
F800
7F80
3FE0
07E0
E0E0
F0E0
7FC0
3F80
ENDCHAR
STARTCHAR 015E
ENCODING 350
SWIDTH 585 0
DWIDTH 13 0
BBX 13 20 0 -5
BITMAP
1FE0
3FF0
78F0
7878
7800
7E00
7FE0
3FF0
07F8
00F8
F078
7078
7FF0
3FF0
1FC0
0000
0380
0080
0F80
0700
ENDCHAR
STARTCHAR 015F
ENCODING 351
SWIDTH 585 0
DWIDTH 13 0
BBX 11 17 1 -5
BITMAP
0E00
3FC0
7FC0
70E0
F800
7F80
3FE0
07E0
E0E0
F0E0
7FC0
3F80
0000
0700
0100
1F00
0E00
ENDCHAR
STARTCHAR 0160
ENCODING 352
SWIDTH 585 0
DWIDTH 13 0
BBX 13 20 0 0
BITMAP
18E0
0DC0
0F80
0000
0000
1FE0
3FF0
78F0
7878
7800
7E00
7FE0
3FF0
07F8
00F8
F078
7078
7FF0
3FF0
1FC0
ENDCHAR
STARTCHAR 0161
ENCODING 353
SWIDTH 585 0
DWIDTH 13 0
BBX 11 17 1 0
BITMAP
71C0
3B80
1F00
0E00
0000
0E00
3FC0
7FC0
70E0
F800
7F80
3FE0
07E0
E0E0
F0E0
7FC0
3F80
ENDCHAR
STARTCHAR 0162
ENCODING 354
SWIDTH 585 0
DWIDTH 13 0
BBX 12 20 1 -5
BITMAP
FFF0
FFF0
FFF0
0F00
0F00
0F00
0F00
0F00
0F00
0F00
0F00
0F00
0F00
0F00
0F00
0000
0700
0100
1F00
0E00
ENDCHAR
STARTCHAR 0163
ENCODING 355
SWIDTH 585 0
DWIDTH 13 0
BBX 11 20 1 -5
BITMAP
0C00
0C00
1C00
1C00
FFE0
FFE0
1C00
1C00
1C00
1C00
1C00
1E00
1F20
1FE0
07E0
0000
0380
0080
0F80
0700
ENDCHAR
STARTCHAR 0164
ENCODING 356
SWIDTH 585 0
DWIDTH 13 0
BBX 12 20 1 0
BITMAP
31C0
1B80
1F00
0000
0000
FFF0
FFF0
FFF0
0F00
0F00
0F00
0F00
0F00
0F00
0F00
0F00
0F00
0F00
0F00
0F00
ENDCHAR
STARTCHAR 0165
ENCODING 357
SWIDTH 585 0
DWIDTH 13 0
BBX 11 18 1 0
BITMAP
00E0
00E0
00E0
0C60
0C40
1CC0
1C00
FFE0
FFE0
1C00
1C00
1C00
1C00
1C00
1E00
1F20
1FE0
07E0
ENDCHAR
STARTCHAR 0166
ENCODING 358
SWIDTH 585 0
DWIDTH 13 0
BBX 12 15 1 0
BITMAP
FFF0
FFF0
FFF0
0F00
0F00
0F00
0F00
7FC0
7FC0
0F00
0F00
0F00
0F00
0F00
0F00
ENDCHAR
STARTCHAR 0167
ENCODING 359
SWIDTH 585 0
DWIDTH 13 0
BBX 11 15 1 0
BITMAP
0C00
0C00
1C00
1C00
FFE0
FFE0
1C00
1C00
7FC0
7FC0
1C00
1E00
1F20
1FE0
07E0
ENDCHAR
STARTCHAR 0168
ENCODING 360
SWIDTH 585 0
DWIDTH 13 0
BBX 11 20 1 0
BITMAP
18C0
3FC0
6780
0000
0000
F0E0
F0E0
F0E0
F0E0
F0E0
F0E0
F0E0
F0E0
F0E0
F0E0
F0E0
F0E0
FFE0
7FC0
3F80
ENDCHAR
STARTCHAR 0169
ENCODING 361
SWIDTH 585 0
DWIDTH 13 0
BBX 12 17 1 0
BITMAP
10C0
3CC0
7F80
6380
0000
0000
F1E0
F1E0
F1E0
F1E0
F1E0
F1E0
F1E0
F1E0
FBE0
7FF0
3EF0
ENDCHAR
STARTCHAR 016A
ENCODING 362
SWIDTH 585 0
DWIDTH 13 0
BBX 11 19 1 0
BITMAP
3F80
3F80
0000
0000
F0E0
F0E0
F0E0
F0E0
F0E0
F0E0
F0E0
F0E0
F0E0
F0E0
F0E0
F0E0
FFE0
7FC0
3F80
ENDCHAR
STARTCHAR 016B
ENCODING 363
SWIDTH 585 0
DWIDTH 13 0
BBX 12 15 1 0
BITMAP
3F80
0000
0000
0000
F1E0
F1E0
F1E0
F1E0
F1E0
F1E0
F1E0
F1E0
FBE0
7FF0
3EF0
ENDCHAR
STARTCHAR 016C
ENCODING 364
SWIDTH 585 0
DWIDTH 13 0
BBX 11 20 1 0
BITMAP
30C0
3B80
1F00
0000
0000
F0E0
F0E0
F0E0
F0E0
F0E0
F0E0
F0E0
F0E0
F0E0
F0E0
F0E0
F0E0
FFE0
7FC0
3F80
ENDCHAR
STARTCHAR 016D
ENCODING 365
SWIDTH 585 0
DWIDTH 13 0
BBX 12 17 1 0
BITMAP
60C0
3180
3F80
1F00
0000
0000
F1E0
F1E0
F1E0
F1E0
F1E0
F1E0
F1E0
F1E0
FBE0
7FF0
3EF0
ENDCHAR
STARTCHAR 016E
ENCODING 366
SWIDTH 585 0
DWIDTH 13 0
BBX 11 21 1 0
BITMAP
0E00
1B00
1900
0F00
0000
0000
F0E0
F0E0
F0E0
F0E0
F0E0
F0E0
F0E0
F0E0
F0E0
F0E0
F0E0
F0E0
FFE0
7FC0
3F80
ENDCHAR
STARTCHAR 016F
ENCODING 367
SWIDTH 585 0
DWIDTH 13 0
BBX 12 17 1 0
BITMAP
0F00
1B00
1B00
0E00
0000
0000
F1E0
F1E0
F1E0
F1E0
F1E0
F1E0
F1E0
F1E0
FBE0
7FF0
3EF0
ENDCHAR
STARTCHAR 0170
ENCODING 368
SWIDTH 585 0
DWIDTH 13 0
BBX 11 20 1 0
BITMAP
0EE0
1CC0
1980
2200
0000
F0E0
F0E0
F0E0
F0E0
F0E0
F0E0
F0E0
F0E0
F0E0
F0E0
F0E0
F0E0
FFE0
7FC0
3F80
ENDCHAR
STARTCHAR 0171
ENCODING 369
SWIDTH 585 0
DWIDTH 13 0
BBX 12 16 1 0
BITMAP
1EE0
19C0
3380
0000
0000
F1E0
F1E0
F1E0
F1E0
F1E0
F1E0
F1E0
F1E0
FBE0
7FF0
3EF0
ENDCHAR
STARTCHAR 0172
ENCODING 370
SWIDTH 585 0
DWIDTH 13 0
BBX 11 18 1 -3
BITMAP
F0E0
F0E0
F0E0
F0E0
F0E0
F0E0
F0E0
F0E0
F0E0
F0E0
F0E0
F0E0
FFE0
7FC0
3F80
0600
0E00
07C0
ENDCHAR
STARTCHAR 0173
ENCODING 371
SWIDTH 585 0
DWIDTH 13 0
BBX 13 14 1 -3
BITMAP
F1E0
F1E0
F1E0
F1E0
F1E0
F1E0
F1E0
F1E0
FBE0
7FF0
3EF0
0060
00C0
00F8
ENDCHAR
STARTCHAR 0174
ENCODING 372
SWIDTH 585 0
DWIDTH 13 0
BBX 13 20 0 0
BITMAP
0700
0F80
1CC0
0020
0000
E318
E738
E738
F7B8
77B8
77B8
77B8
75B0
7DB0
7DF0
7DF0
7DF0
7CF0
3CF0
3CF0
ENDCHAR
STARTCHAR 0175
ENCODING 373
SWIDTH 585 0
DWIDTH 13 0
BBX 13 17 0 0
BITMAP
0700
0F80
0DC0
18E0
2000
0000
E738
E738
67B8
67B8
7FB0
7DB0
7DF0
7DF0
3DF0
3CF0
3CE0
ENDCHAR
STARTCHAR 0176
ENCODING 374
SWIDTH 585 0
DWIDTH 13 0
BBX 13 20 0 0
BITMAP
0700
0F80
1CC0
0020
0000
F078
7870
78F0
3CE0
3DE0
1FC0
1FC0
0FC0
0F80
0780
0780
0780
0780
0780
0780
ENDCHAR
STARTCHAR 0177
ENCODING 375
SWIDTH 585 0
DWIDTH 13 0
BBX 12 21 1 -4
BITMAP
0F00
1F00
1B80
39C0
0000
0010
F0E0
F0E0
71E0
79C0
39C0
3B80
3F80
1F80
1F00
0F00
0F00
0E00
9E00
7C00
7800
ENDCHAR
STARTCHAR 0178
ENCODING 376
SWIDTH 585 0
DWIDTH 13 0
BBX 13 20 0 0
BITMAP
18E0
18E0
18E0
0000
0000
F078
7870
78F0
3CE0
3DE0
1FC0
1FC0
0FC0
0F80
0780
0780
0780
0780
0780
0780
ENDCHAR
STARTCHAR 0179
ENCODING 377
SWIDTH 585 0
DWIDTH 13 0
BBX 12 20 1 0
BITMAP
03C0
0300
0700
0800
0000
FFF0
FFE0
FFE0
03C0
0780
0780
0F00
1F00
1E00
3C00
3C00
7800
FFF0
FFF0
FFF0
ENDCHAR
STARTCHAR 017A
ENCODING 378
SWIDTH 585 0
DWIDTH 13 0
BBX 9 17 2 0
BITMAP
0700
0E00
0C00
1C00
0000
0000
FF80
FF80
0F00
0F00
1E00
1C00
3C00
7800
7800
FF80
FF80
ENDCHAR
STARTCHAR 017B
ENCODING 379
SWIDTH 585 0
DWIDTH 13 0
BBX 12 19 1 0
BITMAP
0E00
0E00
0000
0000
FFF0
FFE0
FFE0
03C0
0780
0780
0F00
1F00
1E00
3C00
3C00
7800
FFF0
FFF0
FFF0
ENDCHAR
STARTCHAR 017C
ENCODING 380
SWIDTH 585 0
DWIDTH 13 0
BBX 9 16 2 0
BITMAP
1C00
1C00
0000
0000
0000
FF80
FF80
0F00
0F00
1E00
1C00
3C00
7800
7800
FF80
FF80
ENDCHAR
STARTCHAR 017D
ENCODING 381
SWIDTH 585 0
DWIDTH 13 0
BBX 12 20 1 0
BITMAP
31C0
1B80
1F00
0000
0000
FFF0
FFE0
FFE0
03C0
0780
0780
0F00
1F00
1E00
3C00
3C00
7800
FFF0
FFF0
FFF0
ENDCHAR
STARTCHAR 017E
ENCODING 382
SWIDTH 585 0
DWIDTH 13 0
BBX 9 17 2 0
BITMAP
E380
7700
3E00
1C00
0000
0000
FF80
FF80
0F00
0F00
1E00
1C00
3C00
7800
7800
FF80
FF80
ENDCHAR
STARTCHAR 017F
ENCODING 383
SWIDTH 585 0
DWIDTH 13 0
BBX 10 16 2 0
BITMAP
0FC0
1FC0
1E40
1C00
1C00
FC00
FC00
1C00
1C00
1C00
1C00
1C00
1C00
FFC0
FFC0
FFC0
ENDCHAR
STARTCHAR 018F
ENCODING 399
SWIDTH 585 0
DWIDTH 13 0
BBX 13 15 0 0
BITMAP
1FC0
3FF0
7CF0
7078
F078
0078
0078
FFF8
FFF8
F078
7078
7878
7FF0
3FE0
1FC0
ENDCHAR
STARTCHAR 0191
ENCODING 401
SWIDTH 585 0
DWIDTH 13 0
BBX 13 19 -1 -4
BITMAP
1FF8
1FF8
1FF8
1C00
1C00
1C00
1FF0
1FF0
1FF0
1C00
1C00
1C00
1C00
1C00
1C00
1C00
3C00
FC00
F800
ENDCHAR
STARTCHAR 0192
ENCODING 402
SWIDTH 585 0
DWIDTH 13 0
BBX 11 20 1 -4
BITMAP
03E0
07E0
0700
0700
0F20
1FC0
1FC0
0E00
0E00
0E00
0E00
1E00
1E00
1E00
1C00
1C00
1C00
3C00
FC00
F800
ENDCHAR
STARTCHAR 0197
ENCODING 407
SWIDTH 585 0
DWIDTH 13 0
BBX 10 15 2 0
BITMAP
FFC0
FFC0
1E00
1E00
1E00
1E00
FF80
FF80
FF80
1E00
1E00
1E00
FFC0
FFC0
FFC0
ENDCHAR
STARTCHAR 019D
ENCODING 413
SWIDTH 585 0
DWIDTH 13 0
BBX 13 19 -1 -4
BITMAP
3C38
3C38
3E38
3E38
3F38
3F38
3FB8
3FB8
3DF8
3DF8
3CF8
3CF8
3CF8
3C78
3C78
3C00
3C00
F800
F000
ENDCHAR
STARTCHAR 01A0
ENCODING 416
SWIDTH 585 0
DWIDTH 13 0
BBX 14 17 0 0
BITMAP
001C
001C
1FF8
3FF0
7CF0
7878
F078
F078
F078
F078
F078
F078
7078
7878
7FF0
3FE0
1FC0
ENDCHAR
STARTCHAR 01A1
ENCODING 417
SWIDTH 585 0
DWIDTH 13 0
BBX 13 14 1 0
BITMAP
0038
0038
0638
3FF0
7FE0
F1E0
F0E0
F0E0
F0E0
F0E0
F0E0
71E0
7FC0
1F80
ENDCHAR
STARTCHAR 01AF
ENCODING 431
SWIDTH 585 0
DWIDTH 13 0
BBX 14 18 1 0
BITMAP
001C
001C
0038
F0F0
F0E0
F0E0
F0E0
F0E0
F0E0
F0E0
F0E0
F0E0
F0E0
F0E0
F0E0
FFE0
7FC0
3F80
ENDCHAR
STARTCHAR 01B0
ENCODING 432
SWIDTH 585 0
DWIDTH 13 0
BBX 13 15 1 0
BITMAP
0038
0038
0038
0070
F1E0
F1E0
F1E0
F1E0
F1E0
F1E0
F1E0
F1E0
FBE0
7FF0
3EF0
ENDCHAR
STARTCHAR 01C4
ENCODING 452
SWIDTH 585 0
DWIDTH 13 0
BBX 13 20 0 0
BITMAP
00D8
00D0
0070
0000
0000
FCF8
FEF8
FEF8
E730
E770
E770
E770
E760
E7E0
E7E0
E7E0
E7C0
FFF8
FFF8
FDF8
ENDCHAR
STARTCHAR 01C5
ENCODING 453
SWIDTH 585 0
DWIDTH 13 0
BBX 13 16 0 0
BITMAP
00D8
FCF0
FE70
FE00
E700
E7F8
E7F8
E730
E770
E770
E760
E7E0
E7E0
FEC0
FEF8
FCF8
ENDCHAR
STARTCHAR 01C6
ENCODING 454
SWIDTH 585 0
DWIDTH 13 0
BBX 13 16 0 0
BITMAP
06D8
06D0
0670
0600
3600
7EF8
FEF8
E630
C630
C670
C660
C660
C6E0
EEC0
FEF8
7EF8
ENDCHAR
STARTCHAR 01C7
ENCODING 455
SWIDTH 585 0
DWIDTH 13 0
BBX 11 19 1 -4
BITMAP
F0E0
F0E0
F0E0
F0E0
F0E0
F0E0
F0E0
F0E0
F0E0
F0E0
F0E0
F0E0
FCE0
FEE0
FEE0
00E0
79E0
3FE0
1F80
ENDCHAR
STARTCHAR 01C8
ENCODING 456
SWIDTH 585 0
DWIDTH 13 0
BBX 11 20 1 -4
BITMAP
01E0
F1E0
F1E0
F000
F000
F1E0
F1E0
F1E0
F1E0
F1E0
F1E0
F1E0
F1E0
FFE0
FFE0
FFE0
01E0
11E0
0FC0
0F80
ENDCHAR
STARTCHAR 01C9
ENCODING 457
SWIDTH 585 0
DWIDTH 13 0
BBX 10 20 2 -4
BITMAP
E3C0
E3C0
E3C0
E000
E000
E7C0
E7C0
E3C0
E3C0
E3C0
E3C0
E3C0
E3C0
E3C0
E3C0
E3C0
03C0
23C0
1F80
1F00
ENDCHAR
STARTCHAR 01CA
ENCODING 458
SWIDTH 585 0
DWIDTH 13 0
BBX 11 19 1 -4
BITMAP
EEE0
EEE0
EEE0
EEE0
EEE0
FEE0
FEE0
FEE0
FEE0
FEE0
EEE0
EEE0
EEE0
EEE0
EEE0
00E0
3CE0
3FE0
1FC0
ENDCHAR
STARTCHAR 01CB
ENCODING 459
SWIDTH 585 0
DWIDTH 13 0
BBX 12 20 1 -4
BITMAP
00F0
E6F0
E6F0
E600
F600
F6E0
F6E0
F6E0
F6E0
FEE0
EEE0
EEE0
EEE0
EEE0
E6E0
E6E0
00E0
04E0
07E0
07C0
ENDCHAR
STARTCHAR 01CC
ENCODING 460
SWIDTH 585 0
DWIDTH 13 0
BBX 12 20 1 -4
BITMAP
00F0
00F0
00F0
0000
0800
FE70
FE70
EE70
EE70
EE70
EE70
EE70
EE70
EE70
EE70
EE70
0070
04E0
07E0
07C0
ENDCHAR
STARTCHAR 01CD
ENCODING 461
SWIDTH 585 0
DWIDTH 13 0
BBX 13 20 0 0
BITMAP
18E0
0DC0
0F80
0000
0000
0F80
0F80
0FC0
1DC0
1DC0
1DE0
3DE0
38E0
38E0
3FF0
7FF0
7FF0
7078
7078
F078
ENDCHAR
STARTCHAR 01CE
ENCODING 462
SWIDTH 585 0
DWIDTH 13 0
BBX 12 17 1 0
BITMAP
71C0
3B80
1F00
0E00
0000
0E00
3F80
7FC0
F1E0
01E0
1FE0
7FE0
F1E0
F1E0
F3E0
FFF0
7EF0
ENDCHAR
STARTCHAR 01CF
ENCODING 463
SWIDTH 585 0
DWIDTH 13 0
BBX 10 20 2 0
BITMAP
6380
3700
3E00
0000
0000
FFC0
FFC0
1E00
1E00
1E00
1E00
1E00
1E00
1E00
1E00
1E00
1E00
FFC0
FFC0
FFC0
ENDCHAR
STARTCHAR 01D0
ENCODING 464
SWIDTH 585 0
DWIDTH 13 0
BBX 11 17 2 0
BITMAP
7180
3300
1F00
1E00
0000
0000
FE00
FE00
0E00
0E00
0E00
0E00
0E00
0E00
FFE0
FFE0
FFE0
ENDCHAR
STARTCHAR 01D1
ENCODING 465
SWIDTH 585 0
DWIDTH 13 0
BBX 13 20 0 0
BITMAP
18E0
0DC0
0F80
0000
0000
1FC0
3FF0
7CF0
7878
F078
F078
F078
F078
F078
F078
7078
7878
7FF0
3FE0
1FC0
ENDCHAR
STARTCHAR 01D2
ENCODING 466
SWIDTH 585 0
DWIDTH 13 0
BBX 11 17 1 0
BITMAP
71C0
3B80
1F00
0E00
0000
0600
3F80
7FC0
F1E0
F0E0
F0E0
F0E0
F0E0
F0E0
71E0
7FC0
1F80
ENDCHAR
STARTCHAR 01D3
ENCODING 467
SWIDTH 585 0
DWIDTH 13 0
BBX 11 20 1 0
BITMAP
31C0
1B80
1F00
0000
0000
F0E0
F0E0
F0E0
F0E0
F0E0
F0E0
F0E0
F0E0
F0E0
F0E0
F0E0
F0E0
FFE0
7FC0
3F80
ENDCHAR
STARTCHAR 01D4
ENCODING 468
SWIDTH 585 0
DWIDTH 13 0
BBX 12 17 1 0
BITMAP
71C0
3B80
1F00
0E00
0000
0000
F1E0
F1E0
F1E0
F1E0
F1E0
F1E0
F1E0
F1E0
FBE0
7FF0
3EF0
ENDCHAR
STARTCHAR 01D5
ENCODING 469
SWIDTH 585 0
DWIDTH 13 0
BBX 11 23 1 0
BITMAP
7FC0
7FC0
0000
79C0
79C0
79C0
0000
0000
F0E0
F0E0
F0E0
F0E0
F0E0
F0E0
F0E0
F0E0
F0E0
F0E0
F0E0
F0E0
FFE0
7FC0
3F80
ENDCHAR
STARTCHAR 01D6
ENCODING 470
SWIDTH 585 0
DWIDTH 13 0
BBX 12 19 1 0
BITMAP
7FC0
7FC0
0000
7BC0
7BC0
7BC0
0000
0000
F1E0
F1E0
F1E0
F1E0
F1E0
F1E0
F1E0
F1E0
FBE0
7FF0
3EF0
ENDCHAR
STARTCHAR 01D7
ENCODING 471
SWIDTH 585 0
DWIDTH 13 0
BBX 11 24 1 0
BITMAP
03C0
0300
0E00
0000
71C0
71C0
71C0
0000
0000
F0E0
F0E0
F0E0
F0E0
F0E0
F0E0
F0E0
F0E0
F0E0
F0E0
F0E0
F0E0
FFE0
7FC0
3F80
ENDCHAR
STARTCHAR 01D8
ENCODING 472
SWIDTH 585 0
DWIDTH 13 0
BBX 12 21 1 0
BITMAP
03C0
0700
0600
0800
0000
71C0
71C0
71C0
0000
0000
F1E0
F1E0
F1E0
F1E0
F1E0
F1E0
F1E0
F1E0
FBE0
7FF0
3EF0
ENDCHAR
STARTCHAR 01D9
ENCODING 473
SWIDTH 585 0
DWIDTH 13 0
BBX 11 23 1 0
BITMAP
7BC0
1F00
0000
71C0
71C0
71C0
0000
0000
F0E0
F0E0
F0E0
F0E0
F0E0
F0E0
F0E0
F0E0
F0E0
F0E0
F0E0
F0E0
FFE0
7FC0
3F80
ENDCHAR
STARTCHAR 01DA
ENCODING 474
SWIDTH 585 0
DWIDTH 13 0
BBX 12 20 1 0
BITMAP
7BC0
1F00
0E00
0000
71C0
71C0
71C0
0000
0000
F1E0
F1E0
F1E0
F1E0
F1E0
F1E0
F1E0
F1E0
FBE0
7FF0
3EF0
ENDCHAR
STARTCHAR 01DB
ENCODING 475
SWIDTH 585 0
DWIDTH 13 0
BBX 11 24 1 0
BITMAP
3800
1C00
0E00
0000
79C0
79C0
79C0
0000
0000
F0E0
F0E0
F0E0
F0E0
F0E0
F0E0
F0E0
F0E0
F0E0
F0E0
F0E0
F0E0
FFE0
7FC0
3F80
ENDCHAR
STARTCHAR 01DC
ENCODING 476
SWIDTH 585 0
DWIDTH 13 0
BBX 12 21 1 0
BITMAP
7800
1C00
0E00
0000
0000
71C0
71C0
71C0
0000
0000
F1E0
F1E0
F1E0
F1E0
F1E0
F1E0
F1E0
F1E0
FBE0
7FF0
3EF0
ENDCHAR
STARTCHAR 01E4
ENCODING 484
SWIDTH 585 0
DWIDTH 13 0
BBX 14 15 0 0
BITMAP
1FC0
3FE0
7CF0
7870
F078
F000
F000
F3F8
F3F8
F078
71FC
7878
7CF8
3FF8
1F98
ENDCHAR
STARTCHAR 01E5
ENCODING 485
SWIDTH 585 0
DWIDTH 13 0
BBX 14 17 0 -4
BITMAP
0038
0770
1FE0
3CE0
3870
3870
3CF0
1FE0
3F80
7000
7FE0
3FF0
3FF8
FFFC
FFFC
7FF8
3FF0
ENDCHAR
STARTCHAR 01E6
ENCODING 486
SWIDTH 585 0
DWIDTH 13 0
BBX 13 20 0 0
BITMAP
18E0
1DC0
0F80
0000
0000
1FC0
3FE0
7CF0
7870
F078
F000
F000
F3F8
F3F8
F078
7078
7878
7FF8
3FF8
1F98
ENDCHAR
STARTCHAR 01E7
ENCODING 487
SWIDTH 585 0
DWIDTH 13 0
BBX 12 21 1 -4
BITMAP
71C0
3B80
1F00
0E00
0070
0EE0
3FC0
79C0
70E0
70E0
79E0
3FC0
7F00
E000
FFC0
7FE0
7FF0
E070
E070
FFF0
7FE0
ENDCHAR
STARTCHAR 01EA
ENCODING 490
SWIDTH 585 0
DWIDTH 13 0
BBX 13 18 0 -3
BITMAP
1FC0
3FF0
7CF0
7878
F078
F078
F078
F078
F078
F078
7078
7878
7FF0
3FE0
1FC0
0300
0700
03E0
ENDCHAR
STARTCHAR 01EB
ENCODING 491
SWIDTH 585 0
DWIDTH 13 0
BBX 11 15 1 -3
BITMAP
0600
3F80
7FC0
F1E0
F0E0
F0E0
F0E0
F0E0
F0E0
71E0
7FC0
1F80
0600
0C00
0F80
ENDCHAR
STARTCHAR 01FA
ENCODING 506
SWIDTH 585 0
DWIDTH 13 0
BBX 13 25 0 0
BITMAP
0180
0180
0300
0000
0700
0D80
0C80
0780
0200
0000
0F80
0F80
0FC0
1DC0
1DC0
1DE0
3DE0
38E0
38E0
3FF0
7FF0
7FF0
7078
7078
F078
ENDCHAR
STARTCHAR 01FB
ENCODING 507
SWIDTH 585 0
DWIDTH 13 0
BBX 12 21 1 0
BITMAP
0300
0600
0400
0000
1E00
1B00
1B00
0E00
0000
0E00
3F80
7FC0
F1E0
01E0
1FE0
7FE0
F1E0
F1E0
F3E0
FFF0
7EF0
ENDCHAR
STARTCHAR 01FC
ENCODING 508
SWIDTH 585 0
DWIDTH 13 0
BBX 13 20 0 0
BITMAP
00F0
00E0
01C0
0200
0000
0FF8
1FF8
1FF8
1F80
1F80
3B80
3BF0
3BF0
3BF0
7F80
7F80
7F80
73F8
F3F8
F3F8
ENDCHAR
STARTCHAR 01FD
ENCODING 509
SWIDTH 585 0
DWIDTH 13 0
BBX 13 17 0 0
BITMAP
01C0
0380
0300
0700
0000
1840
7FF0
7FF8
6718
0718
3FF8
7FF8
E700
E718
E7B8
FDF8
7DF0
ENDCHAR
STARTCHAR 01FE
ENCODING 510
SWIDTH 585 0
DWIDTH 13 0
BBX 13 21 0 -1
BITMAP
01E0
0180
0380
0418
0030
1FF0
3FF0
7CF0
78F8
F1F8
F1F8
F378
F378
F678
FC78
7C78
7878
7FF0
3FE0
7FC0
E000
ENDCHAR
STARTCHAR 01FF
ENCODING 511
SWIDTH 585 0
DWIDTH 13 0
BBX 11 18 1 -1
BITMAP
0380
0700
0600
0E00
0060
06C0
3FC0
7FC0
F3E0
F3E0
F6E0
F4E0
FCE0
F8E0
71E0
7FC0
7F80
E000
ENDCHAR
STARTCHAR 0200
ENCODING 512
SWIDTH 585 0
DWIDTH 13 0
BBX 13 20 0 0
BITMAP
7700
3B80
19C0
0400
0000
0F80
0F80
0FC0
1DC0
1DC0
1DE0
3DE0
38E0
38E0
3FF0
7FF0
7FF0
7078
7078
F078
ENDCHAR
STARTCHAR 0201
ENCODING 513
SWIDTH 585 0
DWIDTH 13 0
BBX 12 16 1 0
BITMAP
EE00
7300
3B80
0000
0E00
3F80
7FC0
F1E0
01E0
1FE0
7FE0
F1E0
F1E0
F3E0
FFF0
7EF0
ENDCHAR
STARTCHAR 0202
ENCODING 514
SWIDTH 585 0
DWIDTH 13 0
BBX 13 20 0 0
BITMAP
0F80
1FC0
3860
0000
0000
0F80
0F80
0FC0
1DC0
1DC0
1DE0
3DE0
38E0
38E0
3FF0
7FF0
7FF0
7078
7078
F078
ENDCHAR
STARTCHAR 0203
ENCODING 515
SWIDTH 585 0
DWIDTH 13 0
BBX 12 16 1 0
BITMAP
3F80
3180
60C0
0000
0E00
3F80
7FC0
F1E0
01E0
1FE0
7FE0
F1E0
F1E0
F3E0
FFF0
7EF0
ENDCHAR
STARTCHAR 0204
ENCODING 516
SWIDTH 585 0
DWIDTH 13 0
BBX 11 20 1 0
BITMAP
EE00
7700
3B80
0000
0000
7FE0
7FE0
7FE0
7000
7000
7000
7FC0
7FC0
7FC0
7000
7000
7000
7FE0
7FE0
7FE0
ENDCHAR
STARTCHAR 0205
ENCODING 517
SWIDTH 585 0
DWIDTH 13 0
BBX 11 16 1 0
BITMAP
FF00
3380
3980
0000
0600
3F80
7FC0
F1E0
F0E0
FFE0
FFE0
F000
F0E0
71E0
7FC0
3F80
ENDCHAR
STARTCHAR 0206
ENCODING 518
SWIDTH 585 0
DWIDTH 13 0
BBX 10 20 2 0
BITMAP
1E00
7F80
6180
0000
0000
FFC0
FFC0
FFC0
E000
E000
E000
FF80
FF80
FF80
E000
E000
E000
FFC0
FFC0
FFC0
ENDCHAR
STARTCHAR 0207
ENCODING 519
SWIDTH 585 0
DWIDTH 13 0
BBX 11 16 1 0
BITMAP
1F80
39C0
30C0
0000
0600
3F80
7FC0
F1E0
F0E0
FFE0
FFE0
F000
F0E0
71E0
7FC0
3F80
ENDCHAR
STARTCHAR 0208
ENCODING 520
SWIDTH 585 0
DWIDTH 13 0
BBX 11 20 1 0
BITMAP
EE00
7700
3380
0800
0000
7FE0
7FE0
0F00
0F00
0F00
0F00
0F00
0F00
0F00
0F00
0F00
0F00
7FE0
7FE0
7FE0
ENDCHAR
STARTCHAR 0209
ENCODING 521
SWIDTH 585 0
DWIDTH 13 0
BBX 12 16 1 0
BITMAP
F700
3B80
19C0
0000
0000
7F00
7F00
0700
0700
0700
0700
0700
0700
7FF0
7FF0
7FF0
ENDCHAR
STARTCHAR 020A
ENCODING 522
SWIDTH 585 0
DWIDTH 13 0
BBX 10 20 2 0
BITMAP
3E00
7F00
E180
0000
0000
FFC0
FFC0
1E00
1E00
1E00
1E00
1E00
1E00
1E00
1E00
1E00
1E00
FFC0
FFC0
FFC0
ENDCHAR
STARTCHAR 020B
ENCODING 523
SWIDTH 585 0
DWIDTH 13 0
BBX 11 16 2 0
BITMAP
3F00
7380
6080
0000
0000
FE00
FE00
0E00
0E00
0E00
0E00
0E00
0E00
FFE0
FFE0
FFE0
ENDCHAR
STARTCHAR 020C
ENCODING 524
SWIDTH 585 0
DWIDTH 13 0
BBX 13 20 0 0
BITMAP
7700
3B80
19C0
0400
0000
1FC0
3FF0
7CF0
7878
F078
F078
F078
F078
F078
F078
7078
7878
7FF0
3FE0
1FC0
ENDCHAR
STARTCHAR 020D
ENCODING 525
SWIDTH 585 0
DWIDTH 13 0
BBX 11 16 1 0
BITMAP
EF00
7300
3980
0000
0600
3F80
7FC0
F1E0
F0E0
F0E0
F0E0
F0E0
F0E0
71E0
7FC0
1F80
ENDCHAR
STARTCHAR 020E
ENCODING 526
SWIDTH 585 0
DWIDTH 13 0
BBX 13 20 0 0
BITMAP
0F80
1FC0
3860
0000
0000
1FC0
3FF0
7CF0
7878
F078
F078
F078
F078
F078
F078
7078
7878
7FF0
3FE0
1FC0
ENDCHAR
STARTCHAR 020F
ENCODING 527
SWIDTH 585 0
DWIDTH 13 0
BBX 11 16 1 0
BITMAP
1F80
39C0
60C0
0000
0600
3F80
7FC0
F1E0
F0E0
F0E0
F0E0
F0E0
F0E0
71E0
7FC0
1F80
ENDCHAR
STARTCHAR 0210
ENCODING 528
SWIDTH 585 0
DWIDTH 13 0
BBX 13 20 1 0
BITMAP
EE00
7700
3380
0800
0000
FFC0
FFE0
FFF0
F0F0
F0F0
F0F0
FFE0
FFC0
FFE0
F1E0
F0F0
F0F0
F0F0
F0F0
F078
ENDCHAR
STARTCHAR 0211
ENCODING 529
SWIDTH 585 0
DWIDTH 13 0
BBX 12 16 1 0
BITMAP
F700
3380
1980
0000
0080
FBE0
FFF0
3CF0
3C70
3C00
3C00
3C00
3C00
FFC0
FFC0
FFC0
ENDCHAR
STARTCHAR 0212
ENCODING 530
SWIDTH 585 0
DWIDTH 13 0
BBX 13 20 1 0
BITMAP
1F00
3F80
70C0
0000
0000
FFC0
FFE0
FFF0
F0F0
F0F0
F0F0
FFE0
FFC0
FFE0
F1E0
F0F0
F0F0
F0F0
F0F0
F078
ENDCHAR
STARTCHAR 0213
ENCODING 531
SWIDTH 585 0
DWIDTH 13 0
BBX 12 16 1 0
BITMAP
1F80
39C0
30C0
0000
0080
FBE0
FFF0
3CF0
3C70
3C00
3C00
3C00
3C00
FFC0
FFC0
FFC0
ENDCHAR
STARTCHAR 0214
ENCODING 532
SWIDTH 585 0
DWIDTH 13 0
BBX 11 20 1 0
BITMAP
EE00
7700
3380
0800
0000
F0E0
F0E0
F0E0
F0E0
F0E0
F0E0
F0E0
F0E0
F0E0
F0E0
F0E0
F0E0
FFE0
7FC0
3F80
ENDCHAR
STARTCHAR 0215
ENCODING 533
SWIDTH 585 0
DWIDTH 13 0
BBX 12 16 1 0
BITMAP
EF00
7300
3980
0000
0000
F1E0
F1E0
F1E0
F1E0
F1E0
F1E0
F1E0
F1E0
FBE0
7FF0
3EF0
ENDCHAR
STARTCHAR 0216
ENCODING 534
SWIDTH 585 0
DWIDTH 13 0
BBX 11 20 1 0
BITMAP
1F00
3F80
70C0
0000
0000
F0E0
F0E0
F0E0
F0E0
F0E0
F0E0
F0E0
F0E0
F0E0
F0E0
F0E0
F0E0
FFE0
7FC0
3F80
ENDCHAR
STARTCHAR 0217
ENCODING 535
SWIDTH 585 0
DWIDTH 13 0
BBX 12 16 1 0
BITMAP
3F80
3180
60C0
0000
0000
F1E0
F1E0
F1E0
F1E0
F1E0
F1E0
F1E0
F1E0
FBE0
7FF0
3EF0
ENDCHAR
STARTCHAR 0218
ENCODING 536
SWIDTH 585 0
DWIDTH 13 0
BBX 13 23 0 -8
BITMAP
1FE0
3FF0
78F0
7878
7800
7E00
7FE0
3FF0
07F8
00F8
F078
7078
7FF0
3FF0
1FC0
0000
0000
0700
0700
0700
0300
0300
0600
ENDCHAR
STARTCHAR 0219
ENCODING 537
SWIDTH 585 0
DWIDTH 13 0
BBX 11 20 1 -8
BITMAP
0E00
3FC0
7FC0
70E0
F800
7F80
3FE0
07E0
E0E0
F0E0
7FC0
3F80
0000
0000
0E00
0E00
0E00
0600
0600
0C00
ENDCHAR
STARTCHAR 021A
ENCODING 538
SWIDTH 585 0
DWIDTH 13 0
BBX 12 23 1 -8
BITMAP
FFF0
FFF0
FFF0
0F00
0F00
0F00
0F00
0F00
0F00
0F00
0F00
0F00
0F00
0F00
0F00
0000
0000
0E00
0E00
0E00
0600
0600
0C00
ENDCHAR
STARTCHAR 021B
ENCODING 539
SWIDTH 585 0
DWIDTH 13 0
BBX 11 23 1 -8
BITMAP
0C00
0C00
1C00
1C00
FFE0
FFE0
1C00
1C00
1C00
1C00
1C00
1E00
1F20
1FE0
07E0
0000
0000
0700
0700
0700
0100
0300
0600
ENDCHAR
STARTCHAR 022A
ENCODING 554
SWIDTH 585 0
DWIDTH 13 0
BBX 13 23 0 0
BITMAP
3FE0
3FE0
0000
3CE0
3CE0
3CE0
0000
0000
1FC0
3FF0
7CF0
7878
F078
F078
F078
F078
F078
F078
7078
7878
7FF0
3FE0
1FC0
ENDCHAR
STARTCHAR 022B
ENCODING 555
SWIDTH 585 0
DWIDTH 13 0
BBX 11 19 1 0
BITMAP
7FC0
7FC0
0000
79C0
79C0
79C0
0000
0600
3F80
7FC0
F1E0
F0E0
F0E0
F0E0
F0E0
F0E0
71E0
7FC0
1F80
ENDCHAR
STARTCHAR 022C
ENCODING 556
SWIDTH 585 0
DWIDTH 13 0
BBX 13 23 0 0
BITMAP
1FE0
1FE0
0000
0C20
3FE0
33C0
0000
0000
1FC0
3FF0
7CF0
7878
F078
F078
F078
F078
F078
F078
7078
7878
7FF0
3FE0
1FC0
ENDCHAR
STARTCHAR 022D
ENCODING 557
SWIDTH 585 0
DWIDTH 13 0
BBX 11 19 1 0
BITMAP
3FC0
3FC0
0000
3CC0
7FC0
6380
0000
0600
3F80
7FC0
F1E0
F0E0
F0E0
F0E0
F0E0
F0E0
71E0
7FC0
1F80
ENDCHAR
STARTCHAR 0230
ENCODING 560
SWIDTH 585 0
DWIDTH 13 0
BBX 13 23 0 0
BITMAP
1FC0
1FC0
0000
0780
0780
0780
0000
0000
1FC0
3FF0
7CF0
7878
F078
F078
F078
F078
F078
F078
7078
7878
7FF0
3FE0
1FC0
ENDCHAR
STARTCHAR 0231
ENCODING 561
SWIDTH 585 0
DWIDTH 13 0
BBX 11 19 1 0
BITMAP
3F80
3F80
0000
0E00
0E00
0E00
0000
0600
3F80
7FC0
F1E0
F0E0
F0E0
F0E0
F0E0
F0E0
71E0
7FC0
1F80
ENDCHAR
STARTCHAR 0232
ENCODING 562
SWIDTH 585 0
DWIDTH 13 0
BBX 13 19 0 0
BITMAP
1FC0
1FC0
0000
0000
F078
7870
78F0
3CE0
3DE0
1FC0
1FC0
0FC0
0F80
0780
0780
0780
0780
0780
0780
ENDCHAR
STARTCHAR 0233
ENCODING 563
SWIDTH 585 0
DWIDTH 13 0
BBX 12 19 1 -4
BITMAP
3FC0
0000
0000
0010
F0E0
F0E0
71E0
79C0
39C0
3B80
3F80
1F80
1F00
0F00
0F00
0E00
9E00
7C00
7800
ENDCHAR
STARTCHAR 0237
ENCODING 567
SWIDTH 585 0
DWIDTH 13 0
BBX 7 15 2 -4
BITMAP
FE
FE
0E
0E
0E
0E
0E
0E
0E
0E
0E
0E
9E
FC
F8
ENDCHAR
STARTCHAR 0244
ENCODING 580
SWIDTH 585 0
DWIDTH 13 0
BBX 13 15 0 0
BITMAP
7870
7870
7870
7870
7870
FFF8
FFF8
FFF8
7870
7870
7870
7870
7FF0
3FE0
1FC0
ENDCHAR
STARTCHAR 0259
ENCODING 601
SWIDTH 585 0
DWIDTH 13 0
BBX 11 12 1 0
BITMAP
0E00
3FC0
7FC0
F1E0
E0E0
00E0
FFE0
FFE0
F0E0
71E0
7FC0
3F80
ENDCHAR
STARTCHAR 0268
ENCODING 616
SWIDTH 585 0
DWIDTH 13 0
BBX 11 16 2 0
BITMAP
0E00
0E00
0000
0000
0000
FE00
FE00
0E00
0E00
7F80
7F80
0E00
0E00
FFE0
FFE0
FFE0
ENDCHAR
STARTCHAR 026A
ENCODING 618
SWIDTH 585 0
DWIDTH 13 0
BBX 8 11 3 0
BITMAP
FF
FF
38
38
38
38
38
38
FF
FF
FF
ENDCHAR
STARTCHAR 0272
ENCODING 626
SWIDTH 585 0
DWIDTH 13 0
BBX 13 16 -1 -4
BITMAP
00C0
1FF0
1FF8
1C78
1C78
1C78
1C78
1C78
1C78
1C78
1C78
1C78
1C00
3C00
FC00
F800
ENDCHAR
STARTCHAR 0289
ENCODING 649
SWIDTH 585 0
DWIDTH 13 0
BBX 13 11 0 0
BITMAP
78F0
78F0
78F0
FFF8
FFF8
FFF8
78F0
78F0
7DF0
3FF8
1F78
ENDCHAR
STARTCHAR 02B9
ENCODING 697
SWIDTH 585 0
DWIDTH 13 0
BBX 4 3 5 13
BITMAP
F0
E0
C0
ENDCHAR
STARTCHAR 02BA
ENCODING 698
SWIDTH 585 0
DWIDTH 13 0
BBX 8 3 3 13
BITMAP
7F
EE
CC
ENDCHAR
STARTCHAR 02BC
ENCODING 700
SWIDTH 585 0
DWIDTH 13 0
BBX 3 6 5 12
BITMAP
E0
E0
E0
60
60
C0
ENDCHAR
STARTCHAR 02C6
ENCODING 710
SWIDTH 585 0
DWIDTH 13 0
BBX 9 4 2 13
BITMAP
1C00
3E00
3700
E380
ENDCHAR
STARTCHAR 02C7
ENCODING 711
SWIDTH 585 0
DWIDTH 13 0
BBX 9 4 2 13
BITMAP
E380
7700
3E00
1C00
ENDCHAR
STARTCHAR 02C9
ENCODING 713
SWIDTH 585 0
DWIDTH 13 0
BBX 7 1 3 15
BITMAP
FE
ENDCHAR
STARTCHAR 02CD
ENCODING 717
SWIDTH 585 0
DWIDTH 13 0
BBX 7 2 3 -4
BITMAP
FE
FE
ENDCHAR
STARTCHAR 02D8
ENCODING 728
SWIDTH 585 0
DWIDTH 13 0
BBX 8 4 3 13
BITMAP
C3
C7
FE
7C
ENDCHAR
STARTCHAR 02D9
ENCODING 729
SWIDTH 585 0
DWIDTH 13 0
BBX 3 2 5 14
BITMAP
E0
E0
ENDCHAR
STARTCHAR 02DA
ENCODING 730
SWIDTH 585 0
DWIDTH 13 0
BBX 5 4 4 13
BITMAP
78
C8
D8
70
ENDCHAR
STARTCHAR 02DB
ENCODING 731
SWIDTH 585 0
DWIDTH 13 0
BBX 5 3 4 -3
BITMAP
60
C0
F8
ENDCHAR
STARTCHAR 02DC
ENCODING 732
SWIDTH 585 0
DWIDTH 13 0
BBX 9 4 2 13
BITMAP
2080
7D80
FF80
C700
ENDCHAR
STARTCHAR 02DD
ENCODING 733
SWIDTH 585 0
DWIDTH 13 0
BBX 9 3 2 13
BITMAP
7B80
6700
CE00
ENDCHAR
STARTCHAR 0300
ENCODING 768
SWIDTH 0 0
DWIDTH 0 0
BBX 5 4 4 13
BITMAP
E0
70
30
38
ENDCHAR
STARTCHAR 0301
ENCODING 769
SWIDTH 0 0
DWIDTH 0 0
BBX 5 4 4 13
BITMAP
38
70
70
E0
ENDCHAR
STARTCHAR 0302
ENCODING 770
SWIDTH 0 0
DWIDTH 0 0
BBX 9 4 2 13
BITMAP
1C00
3E00
3700
E380
ENDCHAR
STARTCHAR 0303
ENCODING 771
SWIDTH 0 0
DWIDTH 0 0
BBX 9 4 2 13
BITMAP
2080
7D80
FF80
C700
ENDCHAR
STARTCHAR 0304
ENCODING 772
SWIDTH 0 0
DWIDTH 0 0
BBX 7 1 3 14
BITMAP
FE
ENDCHAR
STARTCHAR 0306
ENCODING 774
SWIDTH 0 0
DWIDTH 0 0
BBX 8 4 3 13
BITMAP
C3
C7
FE
7C
ENDCHAR
STARTCHAR 0307
ENCODING 775
SWIDTH 0 0
DWIDTH 0 0
BBX 3 2 5 14
BITMAP
E0
E0
ENDCHAR
STARTCHAR 0308
ENCODING 776
SWIDTH 0 0
DWIDTH 0 0
BBX 8 3 3 13
BITMAP
C7
C7
C7
ENDCHAR
STARTCHAR 0309
ENCODING 777
SWIDTH 0 0
DWIDTH 0 0
BBX 5 6 4 12
BITMAP
F0
F8
18
18
30
40
ENDCHAR
STARTCHAR 030A
ENCODING 778
SWIDTH 0 0
DWIDTH 0 0
BBX 5 4 4 13
BITMAP
78
C8
D8
70
ENDCHAR
STARTCHAR 030B
ENCODING 779
SWIDTH 0 0
DWIDTH 0 0
BBX 9 3 2 13
BITMAP
7B80
6700
CE00
ENDCHAR
STARTCHAR 030C
ENCODING 780
SWIDTH 0 0
DWIDTH 0 0
BBX 9 4 2 13
BITMAP
E380
7700
3E00
1C00
ENDCHAR
STARTCHAR 030F
ENCODING 783
SWIDTH 0 0
DWIDTH 0 0
BBX 9 3 2 13
BITMAP
EF00
3300
3980
ENDCHAR
STARTCHAR 0311
ENCODING 785
SWIDTH 0 0
DWIDTH 0 0
BBX 9 3 2 13
BITMAP
3F00
7380
C180
ENDCHAR
STARTCHAR 0312
ENCODING 786
SWIDTH 0 0
DWIDTH 0 0
BBX 3 7 5 13
BITMAP
60
40
C0
E0
E0
E0
E0
ENDCHAR
STARTCHAR 0313
ENCODING 787
SWIDTH 0 0
DWIDTH 0 0
BBX 3 7 5 13
BITMAP
E0
E0
E0
20
60
60
C0
ENDCHAR
STARTCHAR 031B
ENCODING 795
SWIDTH 0 0
DWIDTH 0 0
BBX 5 5 4 10
BITMAP
38
38
38
70
E0
ENDCHAR
STARTCHAR 0323
ENCODING 803
SWIDTH 0 0
DWIDTH 0 0
BBX 3 2 5 -4
BITMAP
E0
E0
ENDCHAR
STARTCHAR 0324
ENCODING 804
SWIDTH 0 0
DWIDTH 0 0
BBX 8 3 3 -5
BITMAP
C7
C7
C7
ENDCHAR
STARTCHAR 0326
ENCODING 806
SWIDTH 0 0
DWIDTH 0 0
BBX 3 6 5 -8
BITMAP
E0
E0
E0
60
60
C0
ENDCHAR
STARTCHAR 0327
ENCODING 807
SWIDTH 0 0
DWIDTH 0 0
BBX 5 4 4 -5
BITMAP
38
08
F8
70
ENDCHAR
STARTCHAR 0328
ENCODING 808
SWIDTH 0 0
DWIDTH 0 0
BBX 5 3 4 -3
BITMAP
60
C0
F8
ENDCHAR
STARTCHAR 032E
ENCODING 814
SWIDTH 0 0
DWIDTH 0 0
BBX 9 3 2 -5
BITMAP
E180
7F00
3E00
ENDCHAR
STARTCHAR 0330
ENCODING 816
SWIDTH 0 0
DWIDTH 0 0
BBX 9 4 2 -5
BITMAP
2080
7D80
FF80
C700
ENDCHAR
STARTCHAR 0331
ENCODING 817
SWIDTH 0 0
DWIDTH 0 0
BBX 7 2 3 -4
BITMAP
FE
FE
ENDCHAR
STARTCHAR 0335
ENCODING 821
SWIDTH 0 0
DWIDTH 0 0
BBX 9 2 2 6
BITMAP
FF80
FF80
ENDCHAR
STARTCHAR 0336
ENCODING 822
SWIDTH 0 0
DWIDTH 0 0
BBX 13 2 0 7
BITMAP
FFF8
FFF8
ENDCHAR
STARTCHAR 0337
ENCODING 823
SWIDTH 0 0
DWIDTH 0 0
BBX 9 7 2 5
BITMAP
0080
0180
0780
1E00
7800
E000
8000
ENDCHAR
STARTCHAR 0338
ENCODING 824
SWIDTH 0 0
DWIDTH 0 0
BBX 11 14 1 -1
BITMAP
0060
00C0
00C0
0180
0300
0300
0600
0400
0C00
1800
1000
3000
6000
E000
ENDCHAR
STARTCHAR 0394
ENCODING 916
SWIDTH 585 0
DWIDTH 13 0
BBX 12 15 1 0
BITMAP
1F00
1F00
1F80
3B80
3B80
3BC0
7BC0
71C0
71C0
71E0
F1E0
E0E0
FFF0
FFF0
FFF0
ENDCHAR
STARTCHAR 03A9
ENCODING 937
SWIDTH 585 0
DWIDTH 13 0
BBX 13 15 0 0
BITMAP
1FC0
3FF0
7CF0
7078
F078
F078
F078
F078
F078
7078
7070
3070
F878
FDF8
FDF8
ENDCHAR
STARTCHAR 03BC
ENCODING 956
SWIDTH 585 0
DWIDTH 13 0
BBX 12 15 1 -4
BITMAP
F1E0
F1E0
F1E0
F1E0
F1E0
F1E0
F1E0
F1E0
FBE0
FFF0
FEF0
F000
F000
F000
F000
ENDCHAR
STARTCHAR 03C0
ENCODING 960
SWIDTH 585 0
DWIDTH 13 0
BBX 13 11 0 0
BITMAP
FFF8
FFF8
3CE0
3CE0
3CE0
38E0
38E0
38E0
38E0
78E0
70F0
ENDCHAR
STARTCHAR 1E24
ENCODING 7716
SWIDTH 585 0
DWIDTH 13 0
BBX 11 19 1 -4
BITMAP
F0E0
F0E0
F0E0
F0E0
F0E0
F0E0
FFE0
FFE0
FFE0
F0E0
F0E0
F0E0
F0E0
F0E0
F0E0
0000
0000
0E00
0E00
ENDCHAR
STARTCHAR 1E25
ENCODING 7717
SWIDTH 585 0
DWIDTH 13 0
BBX 10 20 2 -4
BITMAP
E000
E000
E000
E000
E600
FF80
FFC0
E3C0
E3C0
E3C0
E3C0
E3C0
E3C0
E3C0
E3C0
E3C0
0000
0000
1C00
1C00
ENDCHAR
STARTCHAR 1E62
ENCODING 7778
SWIDTH 585 0
DWIDTH 13 0
BBX 13 19 0 -4
BITMAP
1FE0
3FF0
78F0
7878
7800
7E00
7FE0
3FF0
07F8
00F8
F078
7078
7FF0
3FF0
1FC0
0000
0000
0700
0700
ENDCHAR
STARTCHAR 1E63
ENCODING 7779
SWIDTH 585 0
DWIDTH 13 0
BBX 11 16 1 -4
BITMAP
0E00
3FC0
7FC0
70E0
F800
7F80
3FE0
07E0
E0E0
F0E0
7FC0
3F80
0000
0000
0E00
0E00
ENDCHAR
STARTCHAR 1E6C
ENCODING 7788
SWIDTH 585 0
DWIDTH 13 0
BBX 12 19 1 -4
BITMAP
FFF0
FFF0
FFF0
0F00
0F00
0F00
0F00
0F00
0F00
0F00
0F00
0F00
0F00
0F00
0F00
0000
0000
0E00
0E00
ENDCHAR
STARTCHAR 1E6D
ENCODING 7789
SWIDTH 585 0
DWIDTH 13 0
BBX 11 19 1 -4
BITMAP
0C00
0C00
1C00
1C00
FFE0
FFE0
1C00
1C00
1C00
1C00
1C00
1E00
1F20
1FE0
07E0
0000
0000
0780
0780
ENDCHAR
STARTCHAR 1E80
ENCODING 7808
SWIDTH 585 0
DWIDTH 13 0
BBX 13 20 0 0
BITMAP
1C00
0E00
0700
0000
0000
E318
E738
E738
F7B8
77B8
77B8
77B8
75B0
7DB0
7DF0
7DF0
7DF0
7CF0
3CF0
3CF0
ENDCHAR
STARTCHAR 1E81
ENCODING 7809
SWIDTH 585 0
DWIDTH 13 0
BBX 13 17 0 0
BITMAP
1E00
0E00
0700
0300
0000
0000
E738
E738
67B8
67B8
7FB0
7DB0
7DF0
7DF0
3DF0
3CF0
3CE0
ENDCHAR
STARTCHAR 1E82
ENCODING 7810
SWIDTH 585 0
DWIDTH 13 0
BBX 13 20 0 0
BITMAP
01E0
0180
0380
0400
0000
E318
E738
E738
F7B8
77B8
77B8
77B8
75B0
7DB0
7DF0
7DF0
7DF0
7CF0
3CF0
3CF0
ENDCHAR
STARTCHAR 1E83
ENCODING 7811
SWIDTH 585 0
DWIDTH 13 0
BBX 13 17 0 0
BITMAP
01C0
0380
0300
0700
0000
0000
E738
E738
67B8
67B8
7FB0
7DB0
7DF0
7DF0
3DF0
3CF0
3CE0
ENDCHAR
STARTCHAR 1E84
ENCODING 7812
SWIDTH 585 0
DWIDTH 13 0
BBX 13 20 0 0
BITMAP
18E0
18E0
18E0
0000
0000
E318
E738
E738
F7B8
77B8
77B8
77B8
75B0
7DB0
7DF0
7DF0
7DF0
7CF0
3CF0
3CF0
ENDCHAR
STARTCHAR 1E85
ENCODING 7813
SWIDTH 585 0
DWIDTH 13 0
BBX 13 16 0 0
BITMAP
18E0
18E0
18E0
0000
0000
E738
E738
67B8
67B8
7FB0
7DB0
7DF0
7DF0
3DF0
3CF0
3CE0
ENDCHAR
STARTCHAR 1E9E
ENCODING 7838
SWIDTH 585 0
DWIDTH 13 0
BBX 12 15 1 0
BITMAP
3FC0
7FE0
79E0
F0F0
F0E0
F0E0
F7C0
F7C0
F0E0
F0F0
F070
F0F0
F7E0
F7E0
F7C0
ENDCHAR
STARTCHAR 1EA0
ENCODING 7840
SWIDTH 585 0
DWIDTH 13 0
BBX 13 19 0 -4
BITMAP
0F80
0F80
0FC0
1DC0
1DC0
1DE0
3DE0
38E0
38E0
3FF0
7FF0
7FF0
7078
7078
F078
0000
0000
0700
0700
ENDCHAR
STARTCHAR 1EA1
ENCODING 7841
SWIDTH 585 0
DWIDTH 13 0
BBX 12 16 1 -4
BITMAP
0E00
3F80
7FC0
F1E0
01E0
1FE0
7FE0
F1E0
F1E0
F3E0
FFF0
7EF0
0000
0000
0E00
0E00
ENDCHAR
STARTCHAR 1EA2
ENCODING 7842
SWIDTH 585 0
DWIDTH 13 0
BBX 13 22 0 0
BITMAP
0700
0780
0180
0180
0300
0000
0000
0F80
0F80
0FC0
1DC0
1DC0
1DE0
3DE0
38E0
38E0
3FF0
7FF0
7FF0
7078
7078
F078
ENDCHAR
STARTCHAR 1EA3
ENCODING 7843
SWIDTH 585 0
DWIDTH 13 0
BBX 12 18 1 0
BITMAP
0E00
0F00
0300
0300
0600
0400
0E00
3F80
7FC0
F1E0
01E0
1FE0
7FE0
F1E0
F1E0
F3E0
FFF0
7EF0
ENDCHAR
STARTCHAR 1EA4
ENCODING 7844
SWIDTH 585 0
DWIDTH 13 0
BBX 13 24 0 0
BITMAP
01C0
0180
0300
0000
0700
0F80
1CE0
2000
0000
0F80
0F80
0FC0
1DC0
1DC0
1DE0
3DE0
38E0
38E0
3FF0
7FF0
7FF0
7078
7078
F078
ENDCHAR
STARTCHAR 1EA5
ENCODING 7845
SWIDTH 585 0
DWIDTH 13 0
BBX 12 21 1 0
BITMAP
0380
0300
0700
0E00
0000
1E00
3B00
71C0
0000
0E00
3F80
7FC0
F1E0
01E0
1FE0
7FE0
F1E0
F1E0
F3E0
FFF0
7EF0
ENDCHAR
STARTCHAR 1EA6
ENCODING 7846
SWIDTH 585 0
DWIDTH 13 0
BBX 13 24 0 0
BITMAP
1C00
0E00
0600
0100
0700
0F80
1CE0
2000
0000
0F80
0F80
0FC0
1DC0
1DC0
1DE0
3DE0
38E0
38E0
3FF0
7FF0
7FF0
7078
7078
F078
ENDCHAR
STARTCHAR 1EA7
ENCODING 7847
SWIDTH 585 0
DWIDTH 13 0
BBX 12 21 1 0
BITMAP
3800
1800
1C00
0E00
0000
1F00
3B00
71C0
0000
0E00
3F80
7FC0
F1E0
01E0
1FE0
7FE0
F1E0
F1E0
F3E0
FFF0
7EF0
ENDCHAR
STARTCHAR 1EA8
ENCODING 7848
SWIDTH 585 0
DWIDTH 13 0
BBX 13 25 0 0
BITMAP
0700
0580
0180
0300
0000
0700
0F80
1CE0
2000
0000
0F80
0F80
0FC0
1DC0
1DC0
1DE0
3DE0
38E0
38E0
3FF0
7FF0
7FF0
7078
7078
F078
ENDCHAR
STARTCHAR 1EA9
ENCODING 7849
SWIDTH 585 0
DWIDTH 13 0
BBX 12 22 1 0
BITMAP
0E00
0F00
0300
0600
0400
0000
1F00
1B00
71C0
0000
0E00
3F80
7FC0
F1E0
01E0
1FE0
7FE0
F1E0
F1E0
F3E0
FFF0
7EF0
ENDCHAR
STARTCHAR 1EAA
ENCODING 7850
SWIDTH 585 0
DWIDTH 13 0
BBX 13 23 0 0
BITMAP
1FE0
1FC0
2000
0700
0F80
1CE0
2000
0000
0F80
0F80
0FC0
1DC0
1DC0
1DE0
3DE0
38E0
38E0
3FF0
7FF0
7FF0
7078
7078
F078
ENDCHAR
STARTCHAR 1EAB
ENCODING 7851
SWIDTH 585 0
DWIDTH 13 0
BBX 12 20 1 0
BITMAP
3CC0
7F80
6300
0000
1E00
3B00
71C0
0000
0E00
3F80
7FC0
F1E0
01E0
1FE0
7FE0
F1E0
F1E0
F3E0
FFF0
7EF0
ENDCHAR
STARTCHAR 1EAC
ENCODING 7852
SWIDTH 585 0
DWIDTH 13 0
BBX 13 24 0 -4
BITMAP
0700
0F80
1CC0
0020
0000
0F80
0F80
0FC0
1DC0
1DC0
1DE0
3DE0
38E0
38E0
3FF0
7FF0
7FF0
7078
7078
F078
0000
0000
0700
0700
ENDCHAR
STARTCHAR 1EAD
ENCODING 7853
SWIDTH 585 0
DWIDTH 13 0
BBX 12 21 1 -4
BITMAP
0E00
1F00
3B80
71C0
0000
0E00
3F80
7FC0
F1E0
01E0
1FE0
7FE0
F1E0
F1E0
F3E0
FFF0
7EF0
0000
0000
0E00
0E00
ENDCHAR
STARTCHAR 1EAE
ENCODING 7854
SWIDTH 585 0
DWIDTH 13 0
BBX 13 23 0 0
BITMAP
01C0
0380
0700
3060
1FC0
0F80
0000
0000
0F80
0F80
0FC0
1DC0
1DC0
1DE0
3DE0
38E0
38E0
3FF0
7FF0
7FF0
7078
7078
F078
ENDCHAR
STARTCHAR 1EAF
ENCODING 7855
SWIDTH 585 0
DWIDTH 13 0
BBX 12 20 1 0
BITMAP
0380
0700
0600
0800
71C0
3F80
1E00
0000
0E00
3F80
7FC0
F1E0
01E0
1FE0
7FE0
F1E0
F1E0
F3E0
FFF0
7EF0
ENDCHAR
STARTCHAR 1EB0
ENCODING 7856
SWIDTH 585 0
DWIDTH 13 0
BBX 13 23 0 0
BITMAP
1C00
0600
0700
1860
1FC0
0F80
0000
0000
0F80
0F80
0FC0
1DC0
1DC0
1DE0
3DE0
38E0
38E0
3FF0
7FF0
7FF0
7078
7078
F078
ENDCHAR
STARTCHAR 1EB1
ENCODING 7857
SWIDTH 585 0
DWIDTH 13 0
BBX 12 20 1 0
BITMAP
3800
1C00
0C00
0200
71C0
3F80
0E00
0000
0E00
3F80
7FC0
F1E0
01E0
1FE0
7FE0
F1E0
F1E0
F3E0
FFF0
7EF0
ENDCHAR
STARTCHAR 1EB2
ENCODING 7858
SWIDTH 585 0
DWIDTH 13 0
BBX 13 25 0 0
BITMAP
0700
0780
0180
0180
0200
3860
1FC0
0F80
0000
0000
0F80
0F80
0FC0
1DC0
1DC0
1DE0
3DE0
38E0
38E0
3FF0
7FF0
7FF0
7078
7078
F078
ENDCHAR
STARTCHAR 1EB3
ENCODING 7859
SWIDTH 585 0
DWIDTH 13 0
BBX 12 21 1 0
BITMAP
0E00
0B00
0300
0600
0000
71C0
3F80
0E00
0000
0E00
3F80
7FC0
F1E0
01E0
1FE0
7FE0
F1E0
F1E0
F3E0
FFF0
7EF0
ENDCHAR
STARTCHAR 1EB4
ENCODING 7860
SWIDTH 585 0
DWIDTH 13 0
BBX 13 24 0 0
BITMAP
0C60
1FE0
3BC0
0000
3860
1FC0
0F80
0000
0000
0F80
0F80
0FC0
1DC0
1DC0
1DE0
3DE0
38E0
38E0
3FF0
7FF0
7FF0
7078
7078
F078
ENDCHAR
STARTCHAR 1EB5
ENCODING 7861
SWIDTH 585 0
DWIDTH 13 0
BBX 12 20 1 0
BITMAP
3CC0
7F80
6300
0000
71C0
3F80
0E00
0000
0E00
3F80
7FC0
F1E0
01E0
1FE0
7FE0
F1E0
F1E0
F3E0
FFF0
7EF0
ENDCHAR
STARTCHAR 1EB6
ENCODING 7862
SWIDTH 585 0
DWIDTH 13 0
BBX 13 24 0 -4
BITMAP
1860
1DC0
0F80
0000
0000
0F80
0F80
0FC0
1DC0
1DC0
1DE0
3DE0
38E0
38E0
3FF0
7FF0
7FF0
7078
7078
F078
0000
0000
0700
0700
ENDCHAR
STARTCHAR 1EB7
ENCODING 7863
SWIDTH 585 0
DWIDTH 13 0
BBX 12 21 1 -4
BITMAP
60C0
3180
3F80
1F00
0000
0E00
3F80
7FC0
F1E0
01E0
1FE0
7FE0
F1E0
F1E0
F3E0
FFF0
7EF0
0000
0000
0E00
0E00
ENDCHAR
STARTCHAR 1EB8
ENCODING 7864
SWIDTH 585 0
DWIDTH 13 0
BBX 10 19 2 -4
BITMAP
FFC0
FFC0
FFC0
E000
E000
E000
FF80
FF80
FF80
E000
E000
E000
FFC0
FFC0
FFC0
0000
0000
1E00
1E00
ENDCHAR
STARTCHAR 1EB9
ENCODING 7865
SWIDTH 585 0
DWIDTH 13 0
BBX 11 16 1 -4
BITMAP
0600
3F80
7FC0
F1E0
F0E0
FFE0
FFE0
F000
F0E0
71E0
7FC0
3F80
0000
0000
0F00
0F00
ENDCHAR
STARTCHAR 1EBA
ENCODING 7866
SWIDTH 585 0
DWIDTH 13 0
BBX 10 22 2 0
BITMAP
1C00
1E00
0300
0600
0E00
0000
0000
FFC0
FFC0
FFC0
E000
E000
E000
FF80
FF80
FF80
E000
E000
E000
FFC0
FFC0
FFC0
ENDCHAR
STARTCHAR 1EBB
ENCODING 7867
SWIDTH 585 0
DWIDTH 13 0
BBX 11 18 1 0
BITMAP
0E00
0F00
0380
0300
0700
0400
0600
3F80
7FC0
F1E0
F0E0
FFE0
FFE0
F000
F0E0
71E0
7FC0
3F80
ENDCHAR
STARTCHAR 1EBC
ENCODING 7868
SWIDTH 585 0
DWIDTH 13 0
BBX 10 20 2 0
BITMAP
3880
7F80
6F00
8000
0000
FFC0
FFC0
FFC0
E000
E000
E000
FF80
FF80
FF80
E000
E000
E000
FFC0
FFC0
FFC0
ENDCHAR
STARTCHAR 1EBD
ENCODING 7869
SWIDTH 585 0
DWIDTH 13 0
BBX 11 17 1 0
BITMAP
0840
3EC0
3FC0
6380
0000
0600
3F80
7FC0
F1E0
F0E0
FFE0
FFE0
F000
F0E0
71E0
7FC0
3F80
ENDCHAR
STARTCHAR 1EBE
ENCODING 7870
SWIDTH 585 0
DWIDTH 13 0
BBX 10 24 2 0
BITMAP
0700
0600
0E00
0000
1C00
3E00
7380
0000
0000
FFC0
FFC0
FFC0
E000
E000
E000
FF80
FF80
FF80
E000
E000
E000
FFC0
FFC0
FFC0
ENDCHAR
STARTCHAR 1EBF
ENCODING 7871
SWIDTH 585 0
DWIDTH 13 0
BBX 11 21 1 0
BITMAP
01C0
0380
0700
0600
0000
0F00
1F80
31C0
0000
0600
3F80
7FC0
F1E0
F0E0
FFE0
FFE0
F000
F0E0
71E0
7FC0
3F80
ENDCHAR
STARTCHAR 1EC0
ENCODING 7872
SWIDTH 585 0
DWIDTH 13 0
BBX 10 24 2 0
BITMAP
7000
3800
1C00
0000
1C00
3E00
7380
0000
0000
FFC0
FFC0
FFC0
E000
E000
E000
FF80
FF80
FF80
E000
E000
E000
FFC0
FFC0
FFC0
ENDCHAR
STARTCHAR 1EC1
ENCODING 7873
SWIDTH 585 0
DWIDTH 13 0
BBX 11 21 1 0
BITMAP
3800
1C00
0C00
0600
0000
0F00
1F80
31C0
0000
0600
3F80
7FC0
F1E0
F0E0
FFE0
FFE0
F000
F0E0
71E0
7FC0
3F80
ENDCHAR
STARTCHAR 1EC2
ENCODING 7874
SWIDTH 585 0
DWIDTH 13 0
BBX 10 25 2 0
BITMAP
1E00
1600
0600
0C00
0000
1C00
3E00
7380
0000
0000
FFC0
FFC0
FFC0
E000
E000
E000
FF80
FF80
FF80
E000
E000
E000
FFC0
FFC0
FFC0
ENDCHAR
STARTCHAR 1EC3
ENCODING 7875
SWIDTH 585 0
DWIDTH 13 0
BBX 11 22 1 0
BITMAP
0E00
0F00
0100
0700
0400
0000
0F00
1F80
31C0
0000
0600
3F80
7FC0
F1E0
F0E0
FFE0
FFE0
F000
F0E0
71E0
7FC0
3F80
ENDCHAR
STARTCHAR 1EC4
ENCODING 7876
SWIDTH 585 0
DWIDTH 13 0
BBX 10 23 2 0
BITMAP
7F80
7F00
0000
1C00
3E00
7380
0000
0000
FFC0
FFC0
FFC0
E000
E000
E000
FF80
FF80
FF80
E000
E000
E000
FFC0
FFC0
FFC0
ENDCHAR
STARTCHAR 1EC5
ENCODING 7877
SWIDTH 585 0
DWIDTH 13 0
BBX 11 20 1 0
BITMAP
1CC0
3FC0
2380
0000
0F00
1F80
31C0
0000
0600
3F80
7FC0
F1E0
F0E0
FFE0
FFE0
F000
F0E0
71E0
7FC0
3F80
ENDCHAR
STARTCHAR 1EC6
ENCODING 7878
SWIDTH 585 0
DWIDTH 13 0
BBX 10 24 2 -4
BITMAP
1E00
3E00
7380
0000
0000
FFC0
FFC0
FFC0
E000
E000
E000
FF80
FF80
FF80
E000
E000
E000
FFC0
FFC0
FFC0
0000
0000
1E00
1E00
ENDCHAR
STARTCHAR 1EC7
ENCODING 7879
SWIDTH 585 0
DWIDTH 13 0
BBX 11 21 1 -4
BITMAP
0F00
1F00
1B80
39C0
0000
0600
3F80
7FC0
F1E0
F0E0
FFE0
FFE0
F000
F0E0
71E0
7FC0
3F80
0000
0000
0F00
0F00
ENDCHAR
STARTCHAR 1EC8
ENCODING 7880
SWIDTH 585 0
DWIDTH 13 0
BBX 10 22 2 0
BITMAP
1C00
1E00
0600
0600
0C00
0000
0000
FFC0
FFC0
1E00
1E00
1E00
1E00
1E00
1E00
1E00
1E00
1E00
1E00
FFC0
FFC0
FFC0
ENDCHAR
STARTCHAR 1EC9
ENCODING 7881
SWIDTH 585 0
DWIDTH 13 0
BBX 11 18 2 0
BITMAP
1E00
1F00
0300
0300
0600
0800
0000
FE00
FE00
0E00
0E00
0E00
0E00
0E00
0E00
FFE0
FFE0
FFE0
ENDCHAR
STARTCHAR 1ECA
ENCODING 7882
SWIDTH 585 0
DWIDTH 13 0
BBX 10 19 2 -4
BITMAP
FFC0
FFC0
1E00
1E00
1E00
1E00
1E00
1E00
1E00
1E00
1E00
1E00
FFC0
FFC0
FFC0
0000
0000
1C00
1C00
ENDCHAR
STARTCHAR 1ECB
ENCODING 7883
SWIDTH 585 0
DWIDTH 13 0
BBX 11 20 2 -4
BITMAP
0E00
0E00
0000
0000
0000
FE00
FE00
0E00
0E00
0E00
0E00
0E00
0E00
FFE0
FFE0
FFE0
0000
0000
0E00
0E00
ENDCHAR
STARTCHAR 1ECC
ENCODING 7884
SWIDTH 585 0
DWIDTH 13 0
BBX 13 19 0 -4
BITMAP
1FC0
3FF0
7CF0
7878
F078
F078
F078
F078
F078
F078
7078
7878
7FF0
3FE0
1FC0
0000
0000
0700
0700
ENDCHAR
STARTCHAR 1ECD
ENCODING 7885
SWIDTH 585 0
DWIDTH 13 0
BBX 11 16 1 -4
BITMAP
0600
3F80
7FC0
F1E0
F0E0
F0E0
F0E0
F0E0
F0E0
71E0
7FC0
1F80
0000
0000
0E00
0E00
ENDCHAR
STARTCHAR 1ECE
ENCODING 7886
SWIDTH 585 0
DWIDTH 13 0
BBX 13 22 0 0
BITMAP
0700
0780
0180
0180
0300
0000
0000
1FC0
3FF0
7CF0
7878
F078
F078
F078
F078
F078
F078
7078
7878
7FF0
3FE0
1FC0
ENDCHAR
STARTCHAR 1ECF
ENCODING 7887
SWIDTH 585 0
DWIDTH 13 0
BBX 11 18 1 0
BITMAP
0E00
0F00
0300
0300
0600
0400
0600
3F80
7FC0
F1E0
F0E0
F0E0
F0E0
F0E0
F0E0
71E0
7FC0
1F80
ENDCHAR
STARTCHAR 1ED0
ENCODING 7888
SWIDTH 585 0
DWIDTH 13 0
BBX 13 24 0 0
BITMAP
01C0
0180
0300
0000
0700
0F80
1CE0
2000
0000
1FC0
3FF0
7CF0
7878
F078
F078
F078
F078
F078
F078
7078
7878
7FF0
3FE0
1FC0
ENDCHAR
STARTCHAR 1ED1
ENCODING 7889
SWIDTH 585 0
DWIDTH 13 0
BBX 11 21 1 0
BITMAP
01C0
0380
0700
0600
0000
0F00
1B80
71C0
0000
0600
3F80
7FC0
F1E0
F0E0
F0E0
F0E0
F0E0
F0E0
71E0
7FC0
1F80
ENDCHAR
STARTCHAR 1ED2
ENCODING 7890
SWIDTH 585 0
DWIDTH 13 0
BBX 13 24 0 0
BITMAP
1C00
0E00
0600
0100
0700
0F80
1CE0
2000
0000
1FC0
3FF0
7CF0
7878
F078
F078
F078
F078
F078
F078
7078
7878
7FF0
3FE0
1FC0
ENDCHAR
STARTCHAR 1ED3
ENCODING 7891
SWIDTH 585 0
DWIDTH 13 0
BBX 11 21 1 0
BITMAP
3800
1800
0C00
0E00
0000
0F00
1B80
71C0
0000
0600
3F80
7FC0
F1E0
F0E0
F0E0
F0E0
F0E0
F0E0
71E0
7FC0
1F80
ENDCHAR
STARTCHAR 1ED4
ENCODING 7892
SWIDTH 585 0
DWIDTH 13 0
BBX 13 25 0 0
BITMAP
0700
0580
0180
0300
0000
0700
0F80
1CE0
2000
0000
1FC0
3FF0
7CF0
7878
F078
F078
F078
F078
F078
F078
7078
7878
7FF0
3FE0
1FC0
ENDCHAR
STARTCHAR 1ED5
ENCODING 7893
SWIDTH 585 0
DWIDTH 13 0
BBX 11 22 1 0
BITMAP
0E00
0F00
0300
0700
0400
0000
0F00
1B80
71C0
0000
0600
3F80
7FC0
F1E0
F0E0
F0E0
F0E0
F0E0
F0E0
71E0
7FC0
1F80
ENDCHAR
STARTCHAR 1ED6
ENCODING 7894
SWIDTH 585 0
DWIDTH 13 0
BBX 13 23 0 0
BITMAP
1FE0
1FC0
2000
0700
0F80
1CE0
2000
0000
1FC0
3FF0
7CF0
7878
F078
F078
F078
F078
F078
F078
7078
7878
7FF0
3FE0
1FC0
ENDCHAR
STARTCHAR 1ED7
ENCODING 7895
SWIDTH 585 0
DWIDTH 13 0
BBX 11 20 1 0
BITMAP
3CC0
3F80
6300
0000
0F00
1B80
71C0
0000
0600
3F80
7FC0
F1E0
F0E0
F0E0
F0E0
F0E0
F0E0
71E0
7FC0
1F80
ENDCHAR
STARTCHAR 1ED8
ENCODING 7896
SWIDTH 585 0
DWIDTH 13 0
BBX 13 24 0 -4
BITMAP
0700
0F80
1CC0
0020
0000
1FC0
3FF0
7CF0
7878
F078
F078
F078
F078
F078
F078
7078
7878
7FF0
3FE0
1FC0
0000
0000
0700
0700
ENDCHAR
STARTCHAR 1ED9
ENCODING 7897
SWIDTH 585 0
DWIDTH 13 0
BBX 11 21 1 -4
BITMAP
0E00
1F00
1B80
31C0
4000
0600
3F80
7FC0
F1E0
F0E0
F0E0
F0E0
F0E0
F0E0
71E0
7FC0
1F80
0000
0000
0E00
0E00
ENDCHAR
STARTCHAR 1EDA
ENCODING 7898
SWIDTH 585 0
DWIDTH 13 0
BBX 14 20 0 0
BITMAP
01E0
0180
0380
041C
001C
1FF8
3FF0
7CF0
7878
F078
F078
F078
F078
F078
F078
7078
7878
7FF0
3FE0
1FC0
ENDCHAR
STARTCHAR 1EDB
ENCODING 7899
SWIDTH 585 0
DWIDTH 13 0
BBX 13 17 1 0
BITMAP
0380
0700
0600
0E38
0038
0638
3FF0
7FE0
F1E0
F0E0
F0E0
F0E0
F0E0
F0E0
71E0
7FC0
1F80
ENDCHAR
STARTCHAR 1EDC
ENCODING 7900
SWIDTH 585 0
DWIDTH 13 0
BBX 14 20 0 0
BITMAP
1C00
0E00
0700
001C
001C
1FF8
3FF0
7CF0
7878
F078
F078
F078
F078
F078
F078
7078
7878
7FF0
3FE0
1FC0
ENDCHAR
STARTCHAR 1EDD
ENCODING 7901
SWIDTH 585 0
DWIDTH 13 0
BBX 13 17 1 0
BITMAP
3C00
1C00
0E00
0638
0038
0638
3FF0
7FE0
F1E0
F0E0
F0E0
F0E0
F0E0
F0E0
71E0
7FC0
1F80
ENDCHAR
STARTCHAR 1EDE
ENCODING 7902
SWIDTH 585 0
DWIDTH 13 0
BBX 14 22 0 0
BITMAP
0700
0780
0180
0180
0300
001C
001C
1FF8
3FF0
7CF0
7878
F078
F078
F078
F078
F078
F078
7078
7878
7FF0
3FE0
1FC0
ENDCHAR
STARTCHAR 1EDF
ENCODING 7903
SWIDTH 585 0
DWIDTH 13 0
BBX 13 18 1 0
BITMAP
0E00
0F00
0300
0300
0638
0438
0638
3FF0
7FE0
F1E0
F0E0
F0E0
F0E0
F0E0
F0E0
71E0
7FC0
1F80
ENDCHAR
STARTCHAR 1EE0
ENCODING 7904
SWIDTH 585 0
DWIDTH 13 0
BBX 14 20 0 0
BITMAP
0C60
1FC0
1BDC
001C
001C
1FF8
3FF0
7CF0
7878
F078
F078
F078
F078
F078
F078
7078
7878
7FF0
3FE0
1FC0
ENDCHAR
STARTCHAR 1EE1
ENCODING 7905
SWIDTH 585 0
DWIDTH 13 0
BBX 13 17 1 0
BITMAP
08C0
3EC0
3F80
2338
0038
0638
3FF0
7FE0
F1E0
F0E0
F0E0
F0E0
F0E0
F0E0
71E0
7FC0
1F80
ENDCHAR
STARTCHAR 1EE2
ENCODING 7906
SWIDTH 585 0
DWIDTH 13 0
BBX 14 21 0 -4
BITMAP
001C
001C
1FF8
3FF0
7CF0
7878
F078
F078
F078
F078
F078
F078
7078
7878
7FF0
3FE0
1FC0
0000
0000
0700
0700
ENDCHAR
STARTCHAR 1EE3
ENCODING 7907
SWIDTH 585 0
DWIDTH 13 0
BBX 13 18 1 -4
BITMAP
0038
0038
0638
3FF0
7FE0
F1E0
F0E0
F0E0
F0E0
F0E0
F0E0
71E0
7FC0
1F80
0000
0000
0E00
0E00
ENDCHAR
STARTCHAR 1EE4
ENCODING 7908
SWIDTH 585 0
DWIDTH 13 0
BBX 11 19 1 -4
BITMAP
F0E0
F0E0
F0E0
F0E0
F0E0
F0E0
F0E0
F0E0
F0E0
F0E0
F0E0
F0E0
FFE0
7FC0
3F80
0000
0000
0E00
0E00
ENDCHAR
STARTCHAR 1EE5
ENCODING 7909
SWIDTH 585 0
DWIDTH 13 0
BBX 12 15 1 -4
BITMAP
F1E0
F1E0
F1E0
F1E0
F1E0
F1E0
F1E0
F1E0
FBE0
7FF0
3EF0
0000
0000
0E00
0E00
ENDCHAR
STARTCHAR 1EE6
ENCODING 7910
SWIDTH 585 0
DWIDTH 13 0
BBX 11 22 1 0
BITMAP
0E00
0F00
0300
0300
0600
0000
0000
F0E0
F0E0
F0E0
F0E0
F0E0
F0E0
F0E0
F0E0
F0E0
F0E0
F0E0
F0E0
FFE0
7FC0
3F80
ENDCHAR
STARTCHAR 1EE7
ENCODING 7911
SWIDTH 585 0
DWIDTH 13 0
BBX 12 18 1 0
BITMAP
0E00
0F00
0300
0300
0600
0400
0000
F1E0
F1E0
F1E0
F1E0
F1E0
F1E0
F1E0
F1E0
FBE0
7FF0
3EF0
ENDCHAR
STARTCHAR 1EE8
ENCODING 7912
SWIDTH 585 0
DWIDTH 13 0
BBX 14 20 1 0
BITMAP
03C0
0300
071C
081C
0038
F0F0
F0E0
F0E0
F0E0
F0E0
F0E0
F0E0
F0E0
F0E0
F0E0
F0E0
F0E0
FFE0
7FC0
3F80
ENDCHAR
STARTCHAR 1EE9
ENCODING 7913
SWIDTH 585 0
DWIDTH 13 0
BBX 13 17 1 0
BITMAP
0380
0700
0638
0C38
0038
0070
F1E0
F1E0
F1E0
F1E0
F1E0
F1E0
F1E0
F1E0
FBE0
7FF0
3EF0
ENDCHAR
STARTCHAR 1EEA
ENCODING 7914
SWIDTH 585 0
DWIDTH 13 0
BBX 14 20 1 0
BITMAP
3800
1C00
0E1C
001C
0038
F0F0
F0E0
F0E0
F0E0
F0E0
F0E0
F0E0
F0E0
F0E0
F0E0
F0E0
F0E0
FFE0
7FC0
3F80
ENDCHAR
STARTCHAR 1EEB
ENCODING 7915
SWIDTH 585 0
DWIDTH 13 0
BBX 13 17 1 0
BITMAP
3800
1C00
0C38
0638
0038
0070
F1E0
F1E0
F1E0
F1E0
F1E0
F1E0
F1E0
F1E0
FBE0
7FF0
3EF0
ENDCHAR
STARTCHAR 1EEC
ENCODING 7916
SWIDTH 585 0
DWIDTH 13 0
BBX 14 22 1 0
BITMAP
0E00
0F00
0300
0300
061C
001C
0038
F0F0
F0E0
F0E0
F0E0
F0E0
F0E0
F0E0
F0E0
F0E0
F0E0
F0E0
F0E0
FFE0
7FC0
3F80
ENDCHAR
STARTCHAR 1EED
ENCODING 7917
SWIDTH 585 0
DWIDTH 13 0
BBX 13 18 1 0
BITMAP
0E00
0F00
0300
0338
0638
0438
0070
F1E0
F1E0
F1E0
F1E0
F1E0
F1E0
F1E0
F1E0
FBE0
7FF0
3EF0
ENDCHAR
STARTCHAR 1EEE
ENCODING 7918
SWIDTH 585 0
DWIDTH 13 0
BBX 14 20 1 0
BITMAP
18C0
3FC0
679C
001C
0038
F0F0
F0E0
F0E0
F0E0
F0E0
F0E0
F0E0
F0E0
F0E0
F0E0
F0E0
F0E0
FFE0
7FC0
3F80
ENDCHAR
STARTCHAR 1EEF
ENCODING 7919
SWIDTH 585 0
DWIDTH 13 0
BBX 13 17 1 0
BITMAP
10C0
3C80
3FB8
6338
0038
0070
F1E0
F1E0
F1E0
F1E0
F1E0
F1E0
F1E0
F1E0
FBE0
7FF0
3EF0
ENDCHAR
STARTCHAR 1EF0
ENCODING 7920
SWIDTH 585 0
DWIDTH 13 0
BBX 14 22 1 -4
BITMAP
001C
001C
0038
F0F0
F0E0
F0E0
F0E0
F0E0
F0E0
F0E0
F0E0
F0E0
F0E0
F0E0
F0E0
FFE0
7FC0
3F80
0000
0000
0E00
0E00
ENDCHAR
STARTCHAR 1EF1
ENCODING 7921
SWIDTH 585 0
DWIDTH 13 0
BBX 13 19 1 -4
BITMAP
0038
0038
0038
0070
F1E0
F1E0
F1E0
F1E0
F1E0
F1E0
F1E0
F1E0
FBE0
7FF0
3EF0
0000
0000
0E00
0E00
ENDCHAR
STARTCHAR 1EF2
ENCODING 7922
SWIDTH 585 0
DWIDTH 13 0
BBX 13 20 0 0
BITMAP
1C00
0E00
0700
0000
0000
F078
7870
78F0
3CE0
3DE0
1FC0
1FC0
0FC0
0F80
0780
0780
0780
0780
0780
0780
ENDCHAR
STARTCHAR 1EF3
ENCODING 7923
SWIDTH 585 0
DWIDTH 13 0
BBX 12 21 1 -4
BITMAP
1C00
1C00
0E00
0700
0000
0010
F0E0
F0E0
71E0
79C0
39C0
3B80
3F80
1F80
1F00
0F00
0F00
0E00
9E00
7C00
7800
ENDCHAR
STARTCHAR 1EF4
ENCODING 7924
SWIDTH 585 0
DWIDTH 13 0
BBX 13 19 0 -4
BITMAP
F078
7870
78F0
3CE0
3DE0
1FC0
1FC0
0FC0
0F80
0780
0780
0780
0780
0780
0780
0000
0000
0700
0700
ENDCHAR
STARTCHAR 1EF5
ENCODING 7925
SWIDTH 585 0
DWIDTH 13 0
BBX 12 15 1 -4
BITMAP
F0F0
F0E0
71E0
79C0
39C0
3B80
3F80
1F80
1F00
0F00
0F00
0E00
9E00
7CF0
78F0
ENDCHAR
STARTCHAR 1EF6
ENCODING 7926
SWIDTH 585 0
DWIDTH 13 0
BBX 13 22 0 0
BITMAP
0700
0780
0180
0180
0300
0000
0000
F078
7870
78F0
3CE0
3DE0
1FC0
1FC0
0FC0
0F80
0780
0780
0780
0780
0780
0780
ENDCHAR
STARTCHAR 1EF7
ENCODING 7927
SWIDTH 585 0
DWIDTH 13 0
BBX 12 22 1 -4
BITMAP
0E00
0F00
0180
0300
0700
0400
0010
F0E0
F0E0
71E0
79C0
39C0
3B80
3F80
1F80
1F00
0F00
0F00
0E00
9E00
7C00
7800
ENDCHAR
STARTCHAR 1EF8
ENCODING 7928
SWIDTH 585 0
DWIDTH 13 0
BBX 13 20 0 0
BITMAP
0C60
1FE0
33C0
0000
0000
F078
7870
78F0
3CE0
3DE0
1FC0
1FC0
0FC0
0F80
0780
0780
0780
0780
0780
0780
ENDCHAR
STARTCHAR 1EF9
ENCODING 7929
SWIDTH 585 0
DWIDTH 13 0
BBX 12 21 1 -4
BITMAP
0840
3EC0
3FC0
6380
0000
0010
F0E0
F0E0
71E0
79C0
39C0
3B80
3F80
1F80
1F00
0F00
0F00
0E00
9E00
7C00
7800
ENDCHAR
STARTCHAR 2009
ENCODING 8201
SWIDTH 585 0
DWIDTH 13 0
BBX 0 0 0 0
BITMAP
ENDCHAR
STARTCHAR 2010
ENCODING 8208
SWIDTH 585 0
DWIDTH 13 0
BBX 5 3 4 5
BITMAP
F8
F8
F8
ENDCHAR
STARTCHAR 2011
ENCODING 8209
SWIDTH 585 0
DWIDTH 13 0
BBX 5 3 4 5
BITMAP
F8
F8
F8
ENDCHAR
STARTCHAR 2013
ENCODING 8211
SWIDTH 585 0
DWIDTH 13 0
BBX 9 3 2 5
BITMAP
FF80
FF80
FF80
ENDCHAR
STARTCHAR 2014
ENCODING 8212
SWIDTH 585 0
DWIDTH 13 0
BBX 13 3 0 5
BITMAP
FFF8
FFF8
FFF8
ENDCHAR
STARTCHAR 2018
ENCODING 8216
SWIDTH 585 0
DWIDTH 13 0
BBX 3 8 5 8
BITMAP
60
60
C0
C0
E0
E0
E0
E0
ENDCHAR
STARTCHAR 2019
ENCODING 8217
SWIDTH 585 0
DWIDTH 13 0
BBX 3 8 5 8
BITMAP
E0
E0
E0
E0
60
60
60
C0
ENDCHAR
STARTCHAR 201A
ENCODING 8218
SWIDTH 585 0
DWIDTH 13 0
BBX 3 8 5 -4
BITMAP
E0
E0
E0
E0
60
60
60
C0
ENDCHAR
STARTCHAR 201C
ENCODING 8220
SWIDTH 585 0
DWIDTH 13 0
BBX 9 8 2 8
BITMAP
3180
6300
6300
C300
F780
F780
F780
F780
ENDCHAR
STARTCHAR 201D
ENCODING 8221
SWIDTH 585 0
DWIDTH 13 0
BBX 9 8 2 8
BITMAP
F780
F780
F780
F780
3180
3180
6300
E700
ENDCHAR
STARTCHAR 201E
ENCODING 8222
SWIDTH 585 0
DWIDTH 13 0
BBX 9 8 2 -4
BITMAP
F780
F780
F780
F780
3180
3180
6300
E700
ENDCHAR
STARTCHAR 2020
ENCODING 8224
SWIDTH 585 0
DWIDTH 13 0
BBX 11 19 1 -4
BITMAP
0E00
0E00
0600
0600
FFE0
FFE0
0600
0600
0600
0600
0600
0600
0600
0E00
0E00
0E00
0E00
0E00
0E00
ENDCHAR
STARTCHAR 2021
ENCODING 8225
SWIDTH 585 0
DWIDTH 13 0
BBX 11 19 1 -4
BITMAP
0E00
0E00
0600
0600
FFE0
FFE0
0600
0600
0E00
0E00
0E00
0600
C660
FFE0
FFE0
0600
0600
0E00
0E00
ENDCHAR
STARTCHAR 2022
ENCODING 8226
SWIDTH 585 0
DWIDTH 13 0
BBX 7 7 3 4
BITMAP
7C
7E
FE
FE
FE
7E
38
ENDCHAR
STARTCHAR 2026
ENCODING 8230
SWIDTH 585 0
DWIDTH 13 0
BBX 12 3 1 0
BITMAP
EE70
EE70
EE70
ENDCHAR
STARTCHAR 2030
ENCODING 8240
SWIDTH 585 0
DWIDTH 13 0
BBX 13 15 0 0
BITMAP
3C00
6C00
6400
6400
6C00
7C00
0000
FFF8
1860
7DF0
6598
6598
6598
6DB0
38F0
ENDCHAR
STARTCHAR 2032
ENCODING 8242
SWIDTH 585 0
DWIDTH 13 0
BBX 4 3 5 12
BITMAP
F0
E0
C0
ENDCHAR
STARTCHAR 2033
ENCODING 8243
SWIDTH 585 0
DWIDTH 13 0
BBX 8 3 3 12
BITMAP
FF
EE
CC
ENDCHAR
STARTCHAR 2039
ENCODING 8249
SWIDTH 585 0
DWIDTH 13 0
BBX 5 7 4 4
BITMAP
38
70
70
E0
70
70
38
ENDCHAR
STARTCHAR 203A
ENCODING 8250
SWIDTH 585 0
DWIDTH 13 0
BBX 5 7 4 4
BITMAP
E0
70
38
38
38
70
E0
ENDCHAR
STARTCHAR 2044
ENCODING 8260
SWIDTH 585 0
DWIDTH 13 0
BBX 13 15 0 0
BITMAP
0018
0030
0060
0040
00C0
0180
0000
0000
0000
0C00
1800
1800
3000
6000
C000
ENDCHAR
STARTCHAR 2052
ENCODING 8274
SWIDTH 585 0
DWIDTH 13 0
BBX 13 19 0 -3
BITMAP
0018
0038
7870
7860
78E0
00C0
01C0
0180
0380
0300
0700
0600
0C00
1C00
1800
3870
3070
7070
E000
ENDCHAR
STARTCHAR 2070
ENCODING 8304
SWIDTH 585 0
DWIDTH 13 0
BBX 6 9 4 9
BITMAP
70
F8
8C
8C
8C
8C
8C
F8
70
ENDCHAR
STARTCHAR 2074
ENCODING 8308
SWIDTH 585 0
DWIDTH 13 0
BBX 7 9 3 9
BITMAP
30
38
68
68
C8
FE
FE
08
08
ENDCHAR
STARTCHAR 2075
ENCODING 8309
SWIDTH 585 0
DWIDTH 13 0
BBX 7 9 3 9
BITMAP
7C
7C
40
5C
7E
06
C6
7C
38
ENDCHAR
STARTCHAR 2076
ENCODING 8310
SWIDTH 585 0
DWIDTH 13 0
BBX 7 9 3 9
BITMAP
38
7C
C6
D8
FC
C6
C6
7C
38
ENDCHAR
STARTCHAR 2077
ENCODING 8311
SWIDTH 585 0
DWIDTH 13 0
BBX 6 9 4 9
BITMAP
FC
FC
18
10
30
60
60
60
60
ENDCHAR
STARTCHAR 2078
ENCODING 8312
SWIDTH 585 0
DWIDTH 13 0
BBX 7 9 3 9
BITMAP
38
7C
66
64
3C
66
C6
7E
38
ENDCHAR
STARTCHAR 2079
ENCODING 8313
SWIDTH 585 0
DWIDTH 13 0
BBX 7 9 3 9
BITMAP
38
7C
CC
CE
7E
36
CC
7C
38
ENDCHAR
STARTCHAR 207F
ENCODING 8319
SWIDTH 585 0
DWIDTH 13 0
BBX 6 7 4 8
BITMAP
BC
CC
CC
CC
CC
CC
CC
ENDCHAR
STARTCHAR 2080
ENCODING 8320
SWIDTH 585 0
DWIDTH 13 0
BBX 6 9 4 -4
BITMAP
70
F8
8C
8C
8C
8C
8C
F8
70
ENDCHAR
STARTCHAR 2081
ENCODING 8321
SWIDTH 585 0
DWIDTH 13 0
BBX 5 9 4 -4
BITMAP
30
F0
F0
30
30
30
30
F8
F8
ENDCHAR
STARTCHAR 2082
ENCODING 8322
SWIDTH 585 0
DWIDTH 13 0
BBX 6 9 4 -4
BITMAP
70
F8
8C
0C
18
70
E0
FC
FC
ENDCHAR
STARTCHAR 2083
ENCODING 8323
SWIDTH 585 0
DWIDTH 13 0
BBX 7 9 3 -4
BITMAP
38
7C
46
0C
1C
06
C6
7E
38
ENDCHAR
STARTCHAR 2084
ENCODING 8324
SWIDTH 585 0
DWIDTH 13 0
BBX 7 9 3 -4
BITMAP
30
38
68
68
C8
FE
FE
08
08
ENDCHAR
STARTCHAR 2085
ENCODING 8325
SWIDTH 585 0
DWIDTH 13 0
BBX 7 9 3 -4
BITMAP
7C
7C
40
5C
7E
06
C6
7C
38
ENDCHAR
STARTCHAR 2086
ENCODING 8326
SWIDTH 585 0
DWIDTH 13 0
BBX 7 9 3 -4
BITMAP
38
7C
C6
D8
FC
C6
C6
7C
38
ENDCHAR
STARTCHAR 2087
ENCODING 8327
SWIDTH 585 0
DWIDTH 13 0
BBX 6 9 4 -4
BITMAP
FC
FC
18
10
30
60
60
60
60
ENDCHAR
STARTCHAR 2088
ENCODING 8328
SWIDTH 585 0
DWIDTH 13 0
BBX 7 9 3 -4
BITMAP
38
7C
66
64
3C
66
C6
7E
38
ENDCHAR
STARTCHAR 2089
ENCODING 8329
SWIDTH 585 0
DWIDTH 13 0
BBX 7 9 3 -4
BITMAP
38
7C
CC
CE
7E
36
CC
7C
38
ENDCHAR
STARTCHAR 2099
ENCODING 8345
SWIDTH 585 0
DWIDTH 13 0
BBX 6 7 4 -3
BITMAP
BC
CC
CC
CC
CC
CC
CC
ENDCHAR
STARTCHAR 20A1
ENCODING 8353
SWIDTH 585 0
DWIDTH 13 0
BBX 12 18 1 -1
BITMAP
00D0
01B0
0FF0
3FE0
7F60
7B60
F2C0
F6C0
F680
ED80
FD80
F900
FB00
7B00
7FC0
3FC0
3FC0
6C00
ENDCHAR
STARTCHAR 20A3
ENCODING 8355
SWIDTH 585 0
DWIDTH 13 0
BBX 12 15 0 0
BITMAP
3FF0
3FF0
3FF0
3800
3800
3800
3FE0
3FE0
3FE0
3800
3800
FF80
FF80
3800
3800
ENDCHAR
STARTCHAR 20A4
ENCODING 8356
SWIDTH 585 0
DWIDTH 13 0
BBX 12 16 1 0
BITMAP
0200
1FC0
3FE0
78F0
78F0
7800
FF00
FF00
7800
7800
FF00
FF00
7000
FFE0
FFE0
FFE0
ENDCHAR
STARTCHAR 20A6
ENCODING 8358
SWIDTH 585 0
DWIDTH 13 0
BBX 13 15 0 0
BITMAP
7870
7870
7C70
7C70
FFF8
FFF8
7F70
7F70
7BF0
FFF8
FFF8
79F0
79F0
78F0
78F0
ENDCHAR
STARTCHAR 20A7
ENCODING 8359
SWIDTH 585 0
DWIDTH 13 0
BBX 14 15 0 0
BITMAP
7FE0
7FF0
78F8
7878
FFFC
FFFC
7878
7FF0
7FE0
7F80
7800
7800
7800
7800
7800
ENDCHAR
STARTCHAR 20A9
ENCODING 8361
SWIDTH 585 0
DWIDTH 13 0
BBX 13 15 0 0
BITMAP
E318
E738
E738
F7B8
FFF8
FFF8
FFF8
75B0
7DB0
FFF8
FFF8
7DF0
7CF0
3CF0
3CF0
ENDCHAR
STARTCHAR 20AB
ENCODING 8363
SWIDTH 585 0
DWIDTH 13 0
BBX 12 20 1 -4
BITMAP
01E0
0FF0
0FF0
01E0
19E0
7FE0
7FE0
F1E0
E1E0
E1E0
E1E0
E1E0
F1E0
F1E0
7FE0
3EE0
0000
0000
FFE0
FFE0
ENDCHAR
STARTCHAR 20AC
ENCODING 8364
SWIDTH 585 0
DWIDTH 13 0
BBX 11 15 1 0
BITMAP
07E0
0FE0
1FA0
3C00
3C00
FF80
FF80
7800
FF80
FF80
3C00
3E00
1FE0
0FE0
07E0
ENDCHAR
STARTCHAR 20AD
ENCODING 8365
SWIDTH 585 0
DWIDTH 13 0
BBX 13 15 0 0
BITMAP
7878
78F0
78E0
79E0
79C0
7BC0
FFF8
FFF8
7B80
7BC0
79E0
79E0
78F0
78F0
7878
ENDCHAR
STARTCHAR 20B1
ENCODING 8369
SWIDTH 585 0
DWIDTH 13 0
BBX 14 15 0 0
BITMAP
7FE0
7FF0
F8FC
F87C
7878
F87C
F87C
7FF0
7FE0
7F80
7800
7800
7800
7800
7800
ENDCHAR
STARTCHAR 20B2
ENCODING 8370
SWIDTH 585 0
DWIDTH 13 0
BBX 13 18 0 -1
BITMAP
0300
0300
1FC0
3FE0
7FF0
7370
F378
F300
F300
F3F8
F3F8
F338
7378
7378
7FF8
3FF8
1F98
0300
ENDCHAR
STARTCHAR 20B5
ENCODING 8373
SWIDTH 585 0
DWIDTH 13 0
BBX 13 18 0 -1
BITMAP
0080
0180
1FC0
3FE0
7DF0
7970
F370
F378
F200
F200
F600
F678
7670
7C70
7FF0
3FE0
1FC0
0800
ENDCHAR
STARTCHAR 20B9
ENCODING 8377
SWIDTH 585 0
DWIDTH 13 0
BBX 12 15 1 0
BITMAP
FFF0
FFF0
0780
FFF0
FFE0
0780
0780
FF80
FE00
F800
7C00
3E00
1E00
0F00
0F80
ENDCHAR
STARTCHAR 20BA
ENCODING 8378
SWIDTH 585 0
DWIDTH 13 0
BBX 11 15 1 0
BITMAP
7800
7A00
7E00
7E00
7C00
FA00
FE00
FE00
7C00
F8E0
F8E0
F9E0
7FE0
7FC0
7F80
ENDCHAR
STARTCHAR 20BC
ENCODING 8380
SWIDTH 585 0
DWIDTH 13 0
BBX 13 17 0 0
BITMAP
0300
0300
1FE0
3FF0
7FF0
7378
F338
F338
F338
F338
F338
F338
F338
F338
F338
F038
F038
ENDCHAR
STARTCHAR 20BD
ENCODING 8381
SWIDTH 585 0
DWIDTH 13 0
BBX 13 15 0 0
BITMAP
7FE0
7FF0
7FF8
7878
7878
7878
FFF8
FFF0
FFE0
7800
7800
FF00
FF00
7800
7800
ENDCHAR
STARTCHAR 2113
ENCODING 8467
SWIDTH 585 0
DWIDTH 13 0
BBX 10 16 1 0
BITMAP
0200
1F80
3FC0
3CC0
38C0
38C0
38C0
38C0
3980
FF80
FE00
3800
3800
3880
3F80
1F80
ENDCHAR
STARTCHAR 2116
ENCODING 8470
SWIDTH 585 0
DWIDTH 13 0
BBX 12 15 1 0
BITMAP
EE00
EE00
EE00
EE00
EE00
FEE0
FFB0
FFB0
DFB0
DFB0
DFB0
DEF0
DE40
CFF0
CFF0
ENDCHAR
STARTCHAR 2117
ENCODING 8471
SWIDTH 585 0
DWIDTH 13 0
BBX 13 15 0 0
BITMAP
1FC0
3060
6030
4FD8
CCD8
CCE8
CCE8
CFC8
CF88
CC08
4C18
4C10
6030
3060
0FC0
ENDCHAR
STARTCHAR 2122
ENCODING 8482
SWIDTH 585 0
DWIDTH 13 0
BBX 13 9 0 6
BITMAP
FF38
FF38
27B8
27B8
27B8
27F8
26F8
26D8
26D8
ENDCHAR
STARTCHAR 2126
ENCODING 8486
SWIDTH 585 0
DWIDTH 13 0
BBX 13 15 0 0
BITMAP
1FC0
3FF0
7CF0
7078
F078
F078
F078
F078
F078
7078
7070
3070
F878
FDF8
FDF8
ENDCHAR
STARTCHAR 212E
ENCODING 8494
SWIDTH 585 0
DWIDTH 13 0
BBX 13 15 0 0
BITMAP
1FC0
38E0
7070
7078
F078
F078
FFF8
FFF8
F000
F000
F000
7000
7038
3CF0
0FC0
ENDCHAR
STARTCHAR 2202
ENCODING 8706
SWIDTH 585 0
DWIDTH 13 0
BBX 11 15 1 0
BITMAP
1F80
1FC0
01E0
00E0
00E0
1CE0
7FE0
FBE0
F1E0
E0E0
E0E0
E1E0
FBE0
7FC0
3F80
ENDCHAR
STARTCHAR 2205
ENCODING 8709
SWIDTH 585 0
DWIDTH 13 0
BBX 11 11 1 2
BITMAP
1F60
3FE0
71C0
63E0
E760
CE60
FC60
78E0
71C0
FF80
DF00
ENDCHAR
STARTCHAR 2206
ENCODING 8710
SWIDTH 585 0
DWIDTH 13 0
BBX 12 15 1 0
BITMAP
1F00
1F00
1F80
3B80
3B80
3BC0
7BC0
71C0
71C0
71E0
F1E0
E0E0
FFF0
FFF0
FFF0
ENDCHAR
STARTCHAR 220F
ENCODING 8719
SWIDTH 585 0
DWIDTH 13 0
BBX 13 18 0 -2
BITMAP
FFF8
FFF8
FFF8
78F0
78F0
78F0
78F0
78F0
78F0
78F0
78F0
78F0
78F0
78F0
78F0
78F0
78F0
78F0
ENDCHAR
STARTCHAR 2211
ENCODING 8721
SWIDTH 585 0
DWIDTH 13 0
BBX 13 18 0 -2
BITMAP
7FF0
7FF0
7FF0
3C00
1E00
1F00
0F80
07C0
03E0
03C0
0780
0F00
0E00
1E00
3C00
7FF8
FFF8
FFF8
ENDCHAR
STARTCHAR 2212
ENCODING 8722
SWIDTH 585 0
DWIDTH 13 0
BBX 11 3 1 5
BITMAP
FFE0
FFE0
FFE0
ENDCHAR
STARTCHAR 2215
ENCODING 8725
SWIDTH 585 0
DWIDTH 13 0
BBX 11 15 1 0
BITMAP
0060
00C0
0080
0180
0100
0300
0600
0400
0C00
0800
1800
3000
2000
6000
C000
ENDCHAR
STARTCHAR 2219
ENCODING 8729
SWIDTH 585 0
DWIDTH 13 0
BBX 3 3 5 5
BITMAP
E0
E0
E0
ENDCHAR
STARTCHAR 221A
ENCODING 8730
SWIDTH 585 0
DWIDTH 13 0
BBX 13 21 0 -3
BITMAP
0038
0038
0038
0030
0030
0070
0070
0070
0060
1860
78E0
FCE0
1CE0
1CC0
1CC0
1FC0
0FC0
0F80
0F80
0780
0780
ENDCHAR
STARTCHAR 221E
ENCODING 8734
SWIDTH 585 0
DWIDTH 13 0
BBX 13 8 0 2
BITMAP
3CF0
6DF8
C718
C318
C718
6598
7DF0
3860
ENDCHAR
STARTCHAR 222B
ENCODING 8747
SWIDTH 585 0
DWIDTH 13 0
BBX 6 23 4 -6
BITMAP
1C
7C
70
70
70
70
70
70
70
70
70
70
70
70
30
30
30
30
30
30
30
F0
C0
ENDCHAR
STARTCHAR 2248
ENCODING 8776
SWIDTH 585 0
DWIDTH 13 0
BBX 13 9 0 1
BITMAP
3C08
7FF8
E7F0
80E0
0008
3E08
FFF8
C3F0
80C0
ENDCHAR
STARTCHAR 2260
ENCODING 8800
SWIDTH 585 0
DWIDTH 13 0
BBX 11 11 1 0
BITMAP
00E0
0180
FFE0
FFE0
0600
0E00
0C00
FFE0
FFE0
3000
6000
ENDCHAR
STARTCHAR 2264
ENCODING 8804
SWIDTH 585 0
DWIDTH 13 0
BBX 11 12 1 0
BITMAP
0020
01E0
1FE0
FF80
F000
FC00
7FE0
07E0
0060
0000
FFE0
FFE0
ENDCHAR
STARTCHAR 2265
ENCODING 8805
SWIDTH 585 0
DWIDTH 13 0
BBX 12 12 1 0
BITMAP
8000
F000
FF00
3FF0
01F0
07F0
FFC0
FC00
E000
0000
FFF0
FFF0
ENDCHAR
STARTCHAR 25CA
ENCODING 9674
SWIDTH 585 0
DWIDTH 13 0
BBX 10 15 2 0
BITMAP
1C00
3E00
3600
7700
6300
E380
E180
C1C0
E180
6380
7300
3700
3E00
1E00
1C00
ENDCHAR
STARTCHAR 27E8
ENCODING 10216
SWIDTH 585 0
DWIDTH 13 0
BBX 7 15 3 -1
BITMAP
06
04
0C
18
10
30
60
E0
60
30
30
18
0C
0C
06
ENDCHAR
STARTCHAR 27E9
ENCODING 10217
SWIDTH 585 0
DWIDTH 13 0
BBX 7 15 3 -1
BITMAP
C0
60
20
30
18
18
0C
06
0C
0C
18
30
30
60
C0
ENDCHAR
STARTCHAR FB01
ENCODING 64257
SWIDTH 585 0
DWIDTH 13 0
BBX 12 16 0 0
BITMAP
1EF0
3EF0
38F0
3800
3800
FFE0
FFE0
38E0
38E0
38E0
38E0
38E0
38E0
38E0
38E0
38E0
ENDCHAR
STARTCHAR FB02
ENCODING 64258
SWIDTH 585 0
DWIDTH 13 0
BBX 11 16 0 0
BITMAP
1EE0
3EE0
38E0
38E0
38E0
FEE0
FEE0
38E0
38E0
38E0
38E0
38E0
38E0
38E0
38E0
38E0
ENDCHAR
STARTCHAR FEFF
ENCODING 65279
SWIDTH 0 0
DWIDTH 0 0
BBX 0 0 0 0
BITMAP
ENDCHAR
ENDFONT
